<svg xmlns="http://www.w3.org/2000/svg" viewBox="0 0 15 15">
  <defs>
    <style>.cls-1{fill:#143c8d;}</style>
  </defs>
  <title>Ativo 1</title>
  <g id="Camada_2" data-name="Camada 2">
    <g id="Camada_1-2" data-name="Camada 1">
      <path fill="#143C8D" class="cls-1" d="M5.2,4.58,5.09,3.8a2.47,2.47,0,0,0-.73-1.42l0,0A1.36,1.36,0,0,1,4.8.08,1.37,1.37,0,0,1,6.62,1.52,2.39,2.39,0,0,0,7,3.13l.41.65L7,4.06l-.42-.65a3,3,0,0,1-.45-1.95A.81.81,0,0,0,5.78.71.82.82,0,0,0,5,.58.84.84,0,0,0,4.69,2l0,0a2.93,2.93,0,0,1,.89,1.73l.11.78Z" />
      <path fill="#143C8D" class="cls-1" d="M9.73,15a1.31,1.31,0,0,1-.84-.3,1.34,1.34,0,0,1-.51-1.22A2.4,2.4,0,0,0,8,11.87l-.41-.65L8,10.94l.42.65a3,3,0,0,1,.45,1.95.81.81,0,0,0,.31.75.82.82,0,0,0,.8.13A.84.84,0,0,0,10.31,13l0,0a2.93,2.93,0,0,1-.89-1.73l-.11-.78.52-.07.11.78a2.47,2.47,0,0,0,.73,1.42l0,0a1.37,1.37,0,0,1,.4,1.27,1.39,1.39,0,0,1-.87,1A1.5,1.5,0,0,1,9.73,15Z" />
      <path fill="#143C8D" class="cls-1" d="M1.37,11.1a1.43,1.43,0,0,1-.29,0,1.39,1.39,0,0,1-1-.87A1.37,1.37,0,0,1,1.52,8.38,2.4,2.4,0,0,0,3.13,8l.65-.41L4.06,8l-.65.42a3,3,0,0,1-1.95.45.81.81,0,0,0-.75.31.82.82,0,0,0-.13.8A.84.84,0,0,0,2,10.31l0,0a2.93,2.93,0,0,1,1.73-.89l.78-.11.07.52-.78.11a2.47,2.47,0,0,0-1.42.73l0,0A1.34,1.34,0,0,1,1.37,11.1Z" />
      <path fill="#143C8D" class="cls-1" d="M11.22,7.4,10.94,7l.64-.42a3,3,0,0,1,2-.45.81.81,0,0,0,.75-.31.82.82,0,0,0,.13-.8A.84.84,0,0,0,13,4.69l0,0a2.93,2.93,0,0,1-1.73.89l-.78.11-.07-.52.78-.11a2.47,2.47,0,0,0,1.42-.73l0,0a1.37,1.37,0,0,1,1.27-.4,1.39,1.39,0,0,1,1,.87,1.37,1.37,0,0,1-1.44,1.82A2.39,2.39,0,0,0,11.87,7Z" />
      <path fill="#143C8D" class="cls-1" d="M4.87,14.27a1.19,1.19,0,0,1-.49-.1,1.21,1.21,0,0,1-.6-.66,1.15,1.15,0,0,1,.37-1.3,2.08,2.08,0,0,0,.43-.46,4.8,4.8,0,0,1-1.19-1.1l.41-.33a4.6,4.6,0,0,0,1.26,1.11l.21.13-.1.22a2.66,2.66,0,0,1-.69.84.62.62,0,0,0-.2.71.6.6,0,0,0,.32.36.64.64,0,0,0,.9-.59v0A2.35,2.35,0,0,1,5.71,12l.09-.22.23.07a4.51,4.51,0,0,0,1.67.23l0,.53a5.49,5.49,0,0,1-1.61-.18,1.74,1.74,0,0,0-.08.6v0a1.16,1.16,0,0,1-.77,1.11A1.07,1.07,0,0,1,4.87,14.27Z" />
      <path fill="#143C8D" class="cls-1" d="M2.28,7.87a5.2,5.2,0,0,1,.16-1.8A1.77,1.77,0,0,0,1.93,6h0A1.15,1.15,0,0,1,.78,5.25a1.12,1.12,0,0,1,0-.88,1.15,1.15,0,0,1,2-.22,2.11,2.11,0,0,0,.37.36A5.11,5.11,0,0,1,4.31,3.26l.32.42A4.85,4.85,0,0,0,3.45,5l-.13.21L3.1,5.1a2.37,2.37,0,0,1-.74-.63.62.62,0,0,0-.71-.2.63.63,0,0,0-.36.32.64.64,0,0,0,.59.9h0a2.54,2.54,0,0,1,1,.17l.23.09L3,6a4.6,4.6,0,0,0-.2,1.84Z" />
      <path fill="#143C8D" class="cls-1" d="M10.54,11.63l-.3-.42a4.8,4.8,0,0,0,1.21-1.29l.12-.21.22.11a2.5,2.5,0,0,1,.84.68.62.62,0,0,0,.71.2.6.6,0,0,0,.36-.32.61.61,0,0,0,0-.48.65.65,0,0,0-.61-.42h0a2.57,2.57,0,0,1-1-.19l-.22-.1L11.91,9a4.58,4.58,0,0,0,.26-1.68l.53,0a5.2,5.2,0,0,1-.22,1.62,1.89,1.89,0,0,0,.58.08h0a1.14,1.14,0,0,1,1.11.76,1.12,1.12,0,0,1,0,.88,1.16,1.16,0,0,1-.65.6,1.17,1.17,0,0,1-1.31-.37,1.67,1.67,0,0,0-.46-.42A5,5,0,0,1,10.54,11.63Z" />
      <path fill="#143C8D" class="cls-1" d="M11.32,4.72A4.71,4.71,0,0,0,10,3.44l-.21-.13.12-.22a2.48,2.48,0,0,1,.63-.74.62.62,0,0,0,.2-.71.63.63,0,0,0-.32-.36.67.67,0,0,0-.48,0,.63.63,0,0,0-.42.61h0v0a2.56,2.56,0,0,1-.15.91l-.09.24L9,3a4.66,4.66,0,0,0-1.85-.25l0-.52a5,5,0,0,1,1.8.19A1.57,1.57,0,0,0,9,1.92H9v0A1.15,1.15,0,0,1,9.73.77a1.12,1.12,0,0,1,.88,0,1.15,1.15,0,0,1,.22,2,2.53,2.53,0,0,0-.36.37,5.19,5.19,0,0,1,1.28,1.28Z" />
      <path fill="#143C8D" class="cls-1" d="M5.62,7.73a1.25,1.25,0,0,1-.5-.11A1.18,1.18,0,1,1,6.73,6.15,1.18,1.18,0,0,1,6,7.66,1.09,1.09,0,0,1,5.62,7.73Zm0-1.83a.57.57,0,0,0-.22,0,.65.65,0,0,0-.06,1.2.67.67,0,0,0,.5,0,.64.64,0,0,0,.37-.33.67.67,0,0,0,0-.5A.63.63,0,0,0,5.62,5.9Z" />
      <path fill="#143C8D" class="cls-1" d="M8.65,6.62A1.17,1.17,0,1,1,9.76,5,1.17,1.17,0,0,1,8.65,6.62Zm0-1.83a.85.85,0,0,0-.22,0,.65.65,0,1,0,.84.39.63.63,0,0,0-.34-.36A.55.55,0,0,0,8.65,4.79Z" />
      <path fill="#143C8D" class="cls-1" d="M6.49,10.66A1,1,0,0,1,6,10.54a1.1,1.1,0,0,1-.61-.66,1.18,1.18,0,1,1,1.51.7A1.15,1.15,0,0,1,6.49,10.66Zm0-1.84a.85.85,0,0,0-.22,0,.66.66,0,0,0-.39.84.68.68,0,0,0,.34.37.66.66,0,1,0,.27-1.25Z" />
      <path fill="#143C8D" class="cls-1" d="M9.53,9.55A1.25,1.25,0,0,1,9,9.44a1.16,1.16,0,0,1-.61-.66,1.18,1.18,0,1,1,1.51.7A1.12,1.12,0,0,1,9.53,9.55Zm0-1.83a.62.62,0,0,0-.23,0,.66.66,0,0,0-.39.84A.66.66,0,0,0,9.75,9a.63.63,0,0,0,.37-.33.67.67,0,0,0,0-.5A.65.65,0,0,0,9.53,7.72Z" />
    </g>
  </g>
</svg>