<svg xmlns="http://www.w3.org/2000/svg" fill="none" viewBox="0 0 15 15">
  <path class="cls-1" fill="#143C8D" d="M14.67,11.45H14v-.71a.34.34,0,0,0-.1-.23.32.32,0,0,0-.23-.09h-.34V6.62h.65a.41.41,0,0,0,.19,0,.48.48,0,0,0,.12-.16.41.41,0,0,0,0-.19.32.32,0,0,0-.1-.17L13,5.05V.33a.33.33,0,0,0-.1-.23.29.29,0,0,0-.23-.1H9.94A.31.31,0,0,0,9.7.1a.32.32,0,0,0-.09.23V2.06L7.35.08A.35.35,0,0,0,7.13,0a.32.32,0,0,0-.21.08l-6.81,6a.32.32,0,0,0-.1.17.31.31,0,0,0,0,.19.48.48,0,0,0,.12.16.41.41,0,0,0,.19,0H1v6.49H.33a.29.29,0,0,0-.23.1.29.29,0,0,0-.1.23.3.3,0,0,0,.1.23.32.32,0,0,0,.23.09H10.4a.33.33,0,0,0,.12.14.32.32,0,0,0,.18.06h.73v.7a.32.32,0,0,0,.09.23.33.33,0,0,0,.24.1h1.87a.29.29,0,0,0,.23-.1.33.33,0,0,0,.1-.23V14h.71a.33.33,0,0,0,.23-.1.29.29,0,0,0,.1-.23V11.78a.34.34,0,0,0-.33-.33ZM10.26.65h2.1V4.47l-2.1-1.83ZM7.13.76,13.07,6H1.2ZM1.63,6.63h11v3.79h-.87a.36.36,0,0,0-.24.09.33.33,0,0,0-.09.23v.71H10.7a.3.3,0,0,0-.23.1.32.32,0,0,0-.09.23v1.34h-1V8.43a.33.33,0,0,0-.09-.23A.36.36,0,0,0,9,8.11H5.22A.33.33,0,0,0,5,8.2a.4.4,0,0,0-.1.23v4.68H1.63Zm4.23,6.49H5.55V8.76H8.71v4.36Zm8.48.19h-.71a.34.34,0,0,0-.33.33v.71H12.09v-.71a.33.33,0,0,0-.1-.23.34.34,0,0,0-.23-.1H11V12.1h.73A.33.33,0,0,0,12,12a.34.34,0,0,0,.1-.23v-.71H13.3v.71a.34.34,0,0,0,.1.23.32.32,0,0,0,.23.09h.71Z" />
</svg>