<svg xmlns="http://www.w3.org/2000/svg" fill="none" viewBox="0 0 16.5 16.5">
  <path class="cls-1" fill="#143C8D" d="M16.39,4.37a.33.33,0,0,0-.48,0c-1,1-2.58,1.2-4.51.72-.52-1.93-.24-3.51.72-4.51a.33.33,0,0,0,0-.48.34.34,0,0,0-.48,0,5,5,0,0,0-1,4.78,6.77,6.77,0,0,0-1.62-.17A4.31,4.31,0,0,0,5.54,6.26a5.37,5.37,0,0,0-.65,4.43c-2-.45-3.72-.1-4.79,1a.34.34,0,0,0,0,.48.34.34,0,0,0,.49,0c1-1,2.58-1.2,4.51-.72.51,1.93.24,3.51-.73,4.51a.34.34,0,0,0,0,.48.31.31,0,0,0,.24.1.32.32,0,0,0,.25-.1,5.06,5.06,0,0,0,1-4.78,6.72,6.72,0,0,0,1.62.17A4.29,4.29,0,0,0,11,10.24a5.37,5.37,0,0,0,.66-4.43A7,7,0,0,0,13.26,6a4.31,4.31,0,0,0,3.17-1.17A.37.37,0,0,0,16.39,4.37Zm-6,5.46a3.52,3.52,0,0,1-3,1.27,7.37,7.37,0,0,1-1.83-.24,5,5,0,0,1,.45-4.19A3.52,3.52,0,0,1,9,5.4a7.37,7.37,0,0,1,1.83.24A4.94,4.94,0,0,1,10.4,9.83Z" />
  <path class="cls-1" fill="#143C8D" d="M12.09,1.79,14.7,4.4a.38.38,0,0,0,.25.1.31.31,0,0,0,.24-.1.34.34,0,0,0,0-.48L12.57,1.31a.33.33,0,0,0-.48,0A.39.39,0,0,0,12.09,1.79Z" />
  <path class="cls-1" fill="#143C8D" d="M11.57,2.65a.33.33,0,0,0,0,.48l1.79,1.79a.42.42,0,0,0,.24.1.33.33,0,0,0,.24-.1.34.34,0,0,0,0-.49L12.05,2.65A.33.33,0,0,0,11.57,2.65Z" />
  <path class="cls-1" fill="#143C8D" d="M4.37,14.68,1.76,12.07a.34.34,0,0,0-.49,0,.34.34,0,0,0,0,.48l2.62,2.61a.34.34,0,0,0,.48,0A.33.33,0,0,0,4.37,14.68Z" />
  <path class="cls-1" fill="#143C8D" d="M4.65,13.92a.31.31,0,0,0,.24-.1.33.33,0,0,0,0-.48L3.1,11.55a.34.34,0,1,0-.48.48l1.79,1.79A.36.36,0,0,0,4.65,13.92Z" />
  <path class="cls-1" fill="#143C8D" d="M7.16,6.7a.34.34,0,0,0-.48,0,.33.33,0,0,0,0,.48L9.3,9.8a.36.36,0,0,0,.24.1.31.31,0,0,0,.24-.1.33.33,0,0,0,0-.48Z" />
  <path class="cls-1" fill="#143C8D" d="M6.47,8.22A.34.34,0,0,0,6,8.7l1.79,1.78a.37.37,0,0,0,.24.11.29.29,0,0,0,.24-.11.33.33,0,0,0,0-.48Z" />
  <path class="cls-1" fill="#143C8D" d="M8.68,6a.34.34,0,0,0-.48.48L10,8.28a.32.32,0,0,0,.48,0,.33.33,0,0,0,0-.48Z" />
</svg>