<svg width="17" height="15" viewBox="0 0 17 15" fill="none" xmlns="http://www.w3.org/2000/svg">
<path d="M14.7349 1.4157C13.9437 0.622172 12.8698 0.174924 11.7489 0.17218H11.7298C10.4609 0.195706 9.24364 0.678302 8.30362 1.53049C7.2126 0.51654 6.179 0 5.22197 0C4.59778 0.00327995 3.98042 0.130069 3.40551 0.373052C2.8306 0.616035 2.30953 0.970401 1.87234 1.4157C0.988349 2.33797 0.49645 3.56683 0.500019 4.84403C0.503589 6.12123 1.00235 7.34733 1.89149 8.26465L8.03565 14.1953C8.06972 14.2324 8.11113 14.262 8.15726 14.2823C8.20339 14.3026 8.25323 14.313 8.30362 14.313C8.35401 14.313 8.40385 14.3026 8.44998 14.2823C8.49611 14.262 8.53752 14.2324 8.57159 14.1953L14.7349 8.24552C15.6202 7.32893 16.115 6.10464 16.115 4.83061C16.115 3.55658 15.6202 2.33229 14.7349 1.4157ZM14.1798 7.70984L8.30362 13.3918L2.42742 7.70984C2.33479 7.63008 2.25133 7.54025 2.1786 7.44201H4.30321C4.36695 7.43981 4.42936 7.42317 4.48573 7.39335C4.5421 7.36352 4.59095 7.32128 4.6286 7.26983L5.58564 5.79673L7.38486 9.24033C7.41944 9.2979 7.46674 9.3468 7.52314 9.38327C7.57955 9.41975 7.64355 9.44284 7.71026 9.45078H7.7294C7.79516 9.44796 7.85923 9.42904 7.91596 9.39568C7.9727 9.36232 8.02037 9.31555 8.05479 9.25947L10.0837 5.93065L11.3278 7.13591C11.3619 7.17302 11.4033 7.20265 11.4495 7.22292C11.4956 7.24319 11.5454 7.25366 11.5958 7.25366C11.6462 7.25366 11.696 7.24319 11.7422 7.22292C11.7883 7.20265 11.8297 7.17302 11.8638 7.13591C11.9352 7.06117 11.975 6.96183 11.975 6.85851C11.975 6.75519 11.9352 6.65584 11.8638 6.58111L10.2751 5.05062C10.2305 5.013 10.1785 4.98506 10.1225 4.9686C10.0665 4.95213 10.0076 4.94749 9.94972 4.95496C9.89491 4.96146 9.84229 4.98033 9.79587 5.01016C9.74944 5.04 9.71041 5.08 9.68175 5.12714L7.74854 8.28378L5.96845 4.85931C5.93339 4.80298 5.88492 4.7562 5.82737 4.72316C5.76982 4.69011 5.70498 4.67183 5.63863 4.66993C5.57229 4.66804 5.5065 4.68259 5.44716 4.7123C5.38781 4.74201 5.33675 4.78594 5.29853 4.84018L4.09266 6.67676H1.70008C1.3192 5.91025 1.18466 5.04481 1.31486 4.19891C1.44506 3.35302 1.83365 2.56802 2.42742 1.95137C2.78973 1.57631 3.22387 1.27799 3.70399 1.07421C4.1841 0.870426 4.70035 0.765351 5.22197 0.765245C6.02588 0.765245 7.00205 1.30092 8.03565 2.31487C8.06972 2.35198 8.11113 2.38161 8.15726 2.40188C8.20339 2.42215 8.25323 2.43261 8.30362 2.43261C8.35401 2.43261 8.40385 2.42215 8.44998 2.40188C8.49611 2.38161 8.53752 2.35198 8.57159 2.31487C9.40209 1.45841 10.5368 0.963516 11.7298 0.937425H11.7489C12.6612 0.942338 13.5347 1.30669 14.1798 1.95137C14.9312 2.72516 15.3502 3.76186 15.3474 4.84018C15.3513 5.91306 14.9318 6.94422 14.1798 7.70984Z" fill="#143C8D"/>
</svg>
