<svg width="24" height="24" viewBox="0 0 24 24" fill="none" xmlns="http://www.w3.org/2000/svg">
<path d="M9.69993 9.07934L9.58952 8.29932C9.513 7.75872 9.25325 7.25354 8.85813 6.87685L8.82682 6.847C8.4837 6.51983 8.33681 6.04746 8.43391 5.58334C8.53102 5.11927 8.85496 4.74536 9.3005 4.5832C9.74822 4.42014 10.2384 4.49972 10.6118 4.79589C10.9851 5.09206 11.174 5.55133 11.1172 6.0244C11.0498 6.585 11.1806 7.15555 11.4854 7.63088L11.8988 8.27558L11.4557 8.55968L11.0423 7.91494C10.6717 7.33697 10.5128 6.6432 10.5946 5.96156C10.6296 5.67145 10.5136 5.3898 10.2847 5.20822C10.0558 5.02658 9.75515 4.97789 9.48058 5.07774C9.20735 5.17722 9.00866 5.40648 8.94913 5.69108C8.8896 5.97566 8.97971 6.26541 9.19014 6.46603L9.22145 6.49588C9.70188 6.95395 10.0177 7.56818 10.1107 8.22552L10.2212 9.0055L9.69993 9.07934Z" fill="#143C8D"/>
<path d="M14.231 19.5002C13.9297 19.5002 13.6336 19.3992 13.3881 19.2044C13.0147 18.9082 12.8258 18.449 12.8826 17.9758C12.9499 17.4153 12.8193 16.8448 12.5145 16.3694L12.1011 15.7246L12.5441 15.4406L12.9575 16.0854C13.3281 16.6633 13.4871 17.357 13.4052 18.0386C13.3703 18.3288 13.4862 18.6104 13.7152 18.792C13.9441 18.9736 14.2447 19.0223 14.5193 18.9225C14.7925 18.823 14.9912 18.5937 15.0508 18.3091C15.1103 18.0245 15.0202 17.7348 14.8098 17.5341L14.7786 17.5045C14.2981 17.0463 13.9822 16.432 13.8892 15.7747L13.7788 14.9947L14.2999 14.9209L14.4103 15.7009C14.4868 16.2415 14.7466 16.7468 15.1417 17.1234L15.1729 17.1531C15.5161 17.4804 15.663 17.9528 15.5659 18.417C15.4688 18.881 15.1449 19.2549 14.6993 19.417C14.5461 19.4728 14.3878 19.5002 14.231 19.5002Z" fill="#143C8D"/>
<path d="M5.86568 15.5952C5.77206 15.5953 5.67752 15.5856 5.5833 15.5659C5.11924 15.4688 4.74534 15.1448 4.58318 14.6993C4.42017 14.2515 4.4997 13.7613 4.79587 13.388C5.09198 13.0146 5.55141 12.8258 6.02438 12.8826C6.58497 12.9497 7.15546 12.8192 7.63079 12.5145L8.27555 12.1011L8.55961 12.5442L7.91485 12.9575C7.33688 13.3281 6.6433 13.4871 5.96158 13.4052C5.67137 13.3704 5.38978 13.4862 5.2082 13.7151C5.02661 13.9441 4.97782 14.2447 5.07772 14.5193C5.17719 14.7924 5.40646 14.9912 5.69106 15.0507C5.9758 15.1103 6.26539 15.0202 6.46602 14.8097L6.49575 14.7785C6.95387 14.298 7.56816 13.9822 8.22544 13.8892L9.00552 13.7788L9.07927 14.2998L8.29919 14.4103C7.75859 14.4868 7.25341 14.7466 6.87666 15.1417L6.84692 15.1729C6.58619 15.4465 6.23318 15.5952 5.86568 15.5952Z" fill="#143C8D"/>
<path d="M15.7242 11.8988L15.4402 11.4557L16.0849 11.0423C16.6629 10.6717 17.3567 10.5127 18.0383 10.5947C18.3282 10.6295 18.61 10.5137 18.7916 10.2846C18.9732 10.0557 19.022 9.7551 18.9221 9.48053C18.8226 9.20736 18.5933 9.00861 18.3088 8.94908C18.0243 8.8896 17.7344 8.9796 17.5338 9.19003L17.5039 9.22134C17.046 9.70174 16.4317 10.0176 15.7744 10.1106L14.9943 10.2211L14.9205 9.7L15.7006 9.58958C16.2412 9.51298 16.7464 9.25324 17.123 8.85818L17.1529 8.82686C17.48 8.48376 17.9521 8.33674 18.4165 8.43396C18.8806 8.53106 19.2545 8.85503 19.4167 9.30056C19.5797 9.74837 19.5002 10.2385 19.204 10.6119C18.9079 10.9853 18.4486 11.1741 17.9755 11.1173C17.4149 11.0499 16.8444 11.1806 16.369 11.4854L15.7242 11.8988Z" fill="#143C8D"/>
<path d="M9.36945 18.7745C9.20282 18.7745 9.03649 18.7379 8.88037 18.6651C8.60015 18.5345 8.388 18.3035 8.28289 18.0148C8.11095 17.5425 8.26052 17.0164 8.65496 16.7057C8.81906 16.5772 8.96196 16.4215 9.07612 16.2479C8.62337 15.9468 8.22362 15.5786 7.88525 15.1507L8.29809 14.8242C8.65005 15.2692 9.07601 15.6425 9.56413 15.9335L9.77267 16.0578L9.66551 16.2757C9.50483 16.6024 9.26781 16.8942 8.98018 17.1196C8.73174 17.3153 8.69927 17.6199 8.77749 17.8348C8.83449 17.9914 8.95001 18.1168 9.10281 18.1881C9.25566 18.2594 9.42608 18.2672 9.58251 18.2102C9.84383 18.1151 10.0082 17.876 10.0014 17.601L10.0004 17.5664C9.99274 17.2004 10.0625 16.8484 10.2078 16.5187L10.3039 16.3008L10.5303 16.3747C11.0716 16.5513 11.6323 16.627 12.1968 16.5999L12.2222 17.1256C11.6773 17.152 11.1358 17.0921 10.609 16.9476C10.5499 17.1423 10.5222 17.3452 10.5266 17.5536L10.5275 17.5872C10.5399 18.0849 10.2325 18.5337 9.76262 18.7047C9.63473 18.7513 9.50198 18.7745 9.36945 18.7745Z" fill="#143C8D"/>
<path d="M6.78121 12.3694C6.72631 11.7623 6.77816 11.1596 6.93532 10.574C6.77131 10.5332 6.60146 10.5141 6.42757 10.5182L6.39372 10.5192C5.89434 10.5308 5.4469 10.2235 5.27611 9.75425C5.17105 9.46561 5.18516 9.1523 5.31585 8.87208C5.44647 8.59186 5.67744 8.37969 5.96607 8.27459C6.43826 8.10258 6.96442 8.25211 7.27522 8.64665C7.3829 8.78381 7.50676 8.90418 7.64512 9.00624C7.96329 8.52927 8.35578 8.1121 8.81469 7.76367L9.13295 8.18289C8.65599 8.545 8.25894 8.98987 7.95277 9.50504L7.82229 9.72463L7.59892 9.60073C7.31233 9.44178 7.06421 9.23024 6.86152 8.97202C6.66573 8.72343 6.3611 8.69095 6.14613 8.76918C5.98961 8.82618 5.86413 8.94172 5.79292 9.09455C5.72165 9.24731 5.71381 9.41772 5.77076 9.57425C5.86571 9.83516 6.10661 10.0001 6.3803 9.99299L6.41461 9.99206C6.74242 9.9851 7.05853 10.0403 7.35648 10.1569L7.58724 10.2472L7.51102 10.4829C7.31823 11.0794 7.24906 11.6982 7.30548 12.322L6.78121 12.3694Z" fill="#143C8D"/>
<path d="M15.0446 16.1349L14.7363 15.7083C15.2187 15.3599 15.6259 14.9247 15.9467 14.415L16.0729 14.2144L16.2856 14.3191C16.6102 14.4788 16.9013 14.7144 17.1277 15.0005C17.324 15.2498 17.6287 15.2823 17.8436 15.2041C18.0002 15.1471 18.1256 15.0316 18.1969 14.8787C18.2682 14.726 18.276 14.5556 18.2191 14.399C18.1242 14.1387 17.8836 13.9758 17.6104 13.9817L17.605 13.9819L17.5689 13.9813C17.2164 13.9893 16.8751 13.9232 16.5528 13.7854L16.3262 13.6886L16.4079 13.4562C16.5978 12.9155 16.6856 12.3509 16.669 11.778L17.1951 11.7627C17.2111 12.3129 17.1405 12.8563 16.985 13.3816C17.1713 13.4351 17.3642 13.4601 17.5616 13.455L17.5669 13.4548L17.603 13.4554C18.0955 13.4458 18.5435 13.7518 18.7137 14.219C18.8188 14.5077 18.8047 14.821 18.6739 15.1012C18.5433 15.3814 18.3123 15.5936 18.0237 15.6987C17.5515 15.8705 17.0253 15.7211 16.7146 15.3266C16.5848 15.1625 16.4276 15.0194 16.2531 14.9053C15.9199 15.3827 15.5143 15.7956 15.0446 16.1349Z" fill="#143C8D"/>
<path d="M15.8224 9.22206C15.4636 8.70694 15.0092 8.2753 14.4721 7.93913L14.2604 7.8066L14.3817 7.58822C14.5403 7.3029 14.7514 7.05557 15.0094 6.85305C15.258 6.6572 15.2905 6.35255 15.2122 6.13766C15.1552 5.98108 15.0397 5.8557 14.8868 5.78439C14.7341 5.71318 14.5637 5.70532 14.4072 5.76223C14.1472 5.85692 13.9833 6.09592 13.9899 6.37119L13.99 6.3762L13.9895 6.41224C13.9962 6.72499 13.9445 7.03057 13.8357 7.32054L13.7456 7.5606L13.5033 7.47681C12.9022 7.26906 12.2792 7.1868 11.6513 7.23227L11.6133 6.70725C12.2224 6.66304 12.8272 6.72684 13.415 6.89674C13.4508 6.74158 13.4669 6.58192 13.4631 6.4196L13.463 6.41462L13.4635 6.37841C13.4541 5.88354 13.7603 5.43763 14.2271 5.26768C14.5157 5.16268 14.829 5.17668 15.1093 5.30742C15.3895 5.43806 15.6017 5.669 15.7068 5.95764C15.8787 6.42994 15.7292 6.95606 15.3347 7.26675C15.1964 7.37533 15.0753 7.50011 14.9729 7.63944C15.4748 7.98956 15.905 8.41984 16.2543 8.92127L15.8224 9.22206Z" fill="#143C8D"/>
<path d="M10.1192 12.2293C9.94956 12.2293 9.78045 12.1922 9.62209 12.1183C9.33692 11.9853 9.12055 11.7492 9.0129 11.4535C8.79069 10.8431 9.1066 10.1657 9.71698 9.9435C10.3275 9.72113 11.0049 10.0373 11.227 10.6476C11.3346 10.9433 11.3207 11.2633 11.1877 11.5485C11.0546 11.8337 10.8185 12.0501 10.5228 12.1576C10.3914 12.2055 10.2551 12.2293 10.1192 12.2293ZM10.1193 10.3987C10.0454 10.3987 9.97035 10.4114 9.89704 10.4381C9.5593 10.561 9.38455 10.9358 9.50751 11.2735C9.56704 11.4371 9.68676 11.5677 9.84456 11.6413C10.0023 11.7149 10.1794 11.7226 10.3429 11.663C10.5065 11.6034 10.6372 11.4838 10.7108 11.326C10.7843 11.1682 10.7921 10.9912 10.7325 10.8276C10.6362 10.5633 10.3856 10.3987 10.1193 10.3987Z" fill="#143C8D"/>
<path d="M13.1545 11.1247C12.6731 11.1248 12.2202 10.8274 12.0462 10.3495C11.824 9.73904 12.1399 9.06166 12.7503 8.83949C13.0461 8.73186 13.366 8.74585 13.6512 8.87881C13.9365 9.01182 14.1528 9.24798 14.2603 9.54368C14.4826 10.1542 14.1667 10.8315 13.5562 11.0536C13.4237 11.1019 13.2879 11.1247 13.1545 11.1247ZM13.1537 9.2944C13.0785 9.2944 13.0032 9.30756 12.9304 9.33404C12.5927 9.45698 12.418 9.83174 12.5409 10.1695C12.6638 10.5072 13.0385 10.682 13.3763 10.559C13.714 10.4361 13.8888 10.0614 13.7659 9.72363C13.7063 9.56003 13.5866 9.42935 13.4289 9.35583C13.3412 9.31497 13.2476 9.2944 13.1537 9.2944Z" fill="#143C8D"/>
<path d="M10.9934 15.1553C10.8237 15.1553 10.6546 15.1181 10.4962 15.0443C10.2111 14.9114 9.99468 14.6752 9.88706 14.3795C9.66483 13.769 9.98073 13.0917 10.5911 12.8695C11.2017 12.6472 11.879 12.9632 12.1012 13.5736C12.3233 14.1841 12.0074 14.8615 11.397 15.0836C11.2655 15.1315 11.1292 15.1553 10.9934 15.1553ZM10.9934 13.3247C10.9195 13.3247 10.8445 13.3373 10.7711 13.364C10.4334 13.4869 10.2586 13.8617 10.3816 14.1994C10.4412 14.363 10.5609 14.4936 10.7186 14.5672C10.8765 14.6408 11.0534 14.6486 11.217 14.589C11.5547 14.4661 11.7295 14.0913 11.6066 13.7535C11.5104 13.4892 11.2598 13.3247 10.9934 13.3247Z" fill="#143C8D"/>
<path d="M14.0267 14.0508C13.857 14.0508 13.6879 14.0137 13.5295 13.9398C13.2443 13.8069 13.028 13.5707 12.9204 13.275C12.6982 12.6646 13.0141 11.9872 13.6245 11.765C14.2349 11.5427 14.9124 11.8587 15.1345 12.4692C15.2421 12.7648 15.2282 13.0848 15.0952 13.37C14.9622 13.6553 14.726 13.8716 14.4304 13.9792C14.2989 14.027 14.1626 14.0508 14.0267 14.0508ZM14.0268 12.2203C13.9529 12.2203 13.8779 12.2329 13.8045 12.2596C13.4668 12.3825 13.292 12.7573 13.4149 13.095C13.5379 13.4328 13.9126 13.6074 14.2504 13.4846C14.4139 13.425 14.5446 13.3053 14.6182 13.1476C14.6917 12.9898 14.6995 12.8128 14.6399 12.6491C14.5437 12.3848 14.2931 12.2203 14.0268 12.2203Z" fill="#143C8D"/>
</svg>
