<?xml version="1.0" encoding="utf-8"?>
<!-- Generator: Adobe Illustrator 23.0.0, SVG Export Plug-In . SVG Version: 6.00 Build 0)  -->
<svg version="1.1" id="Camada_1" xmlns="http://www.w3.org/2000/svg" xmlns:xlink="http://www.w3.org/1999/xlink" x="0px" y="0px"
	 viewBox="0 0 24 24" style="enable-background:new 0 0 24 24;" xml:space="preserve">
<style type="text/css">
	.st0{fill:#143C8D;}
</style>
<path class="st0" d="M8.3,7.3L8.1,6.1C8,5.2,7.6,4.4,7,3.8l-0.1,0c-0.5-0.5-0.8-1.3-0.6-2C6.4,1,7,0.4,7.7,0.1
	C8.4-0.1,9.2,0,9.8,0.5c0.6,0.5,0.9,1.2,0.8,2c-0.1,0.9,0.1,1.8,0.6,2.6l0.7,1l-0.7,0.5l-0.7-1c-0.6-0.9-0.8-2-0.7-3.1
	c0.1-0.5-0.1-0.9-0.5-1.2C8.9,0.8,8.4,0.8,8,0.9c-0.4,0.2-0.8,0.5-0.9,1C7,2.4,7.2,2.8,7.5,3.1l0.1,0C8.3,3.9,8.8,4.9,9,6l0.2,1.2
	L8.3,7.3z"/>
<path class="st0" d="M15.6,24c-0.5,0-1-0.2-1.3-0.5c-0.6-0.5-0.9-1.2-0.8-2c0.1-0.9-0.1-1.8-0.6-2.6l-0.7-1l0.7-0.5l0.7,1
	c0.6,0.9,0.8,2,0.7,3.1c-0.1,0.5,0.1,0.9,0.5,1.2c0.4,0.3,0.8,0.4,1.3,0.2c0.4-0.2,0.8-0.5,0.9-1c0.1-0.5,0-0.9-0.4-1.2l0,0
	c-0.8-0.7-1.3-1.7-1.4-2.8l-0.2-1.2l0.8-0.1l0.2,1.2c0.1,0.9,0.5,1.7,1.2,2.3l0,0c0.5,0.5,0.8,1.3,0.6,2c-0.2,0.7-0.7,1.3-1.4,1.6
	C16.1,24,15.8,24,15.6,24z"/>
<path class="st0" d="M2.2,17.8c-0.1,0-0.3,0-0.5,0C1,17.6,0.4,17,0.1,16.3c-0.3-0.7-0.1-1.5,0.3-2.1c0.5-0.6,1.2-0.9,2-0.8
	c0.9,0.1,1.8-0.1,2.6-0.6l1-0.7l0.5,0.7l-1,0.7c-0.9,0.6-2,0.8-3.1,0.7c-0.5-0.1-0.9,0.1-1.2,0.5c-0.3,0.4-0.4,0.8-0.2,1.3
	c0.2,0.4,0.5,0.8,1,0.9c0.5,0.1,0.9,0,1.2-0.4l0,0C3.9,15.7,4.9,15.2,6,15l1.2-0.2l0.1,0.8l-1.2,0.2C5.2,16,4.4,16.4,3.8,17l0,0
	C3.3,17.5,2.8,17.8,2.2,17.8z"/>
<path class="st0" d="M18,11.8l-0.5-0.7l1-0.7c0.9-0.6,2-0.8,3.1-0.7c0.5,0.1,0.9-0.1,1.2-0.5c0.3-0.4,0.4-0.8,0.2-1.3
	c-0.2-0.4-0.5-0.8-1-0.9c-0.5-0.1-0.9,0-1.2,0.4l0,0.1C20.1,8.3,19.1,8.8,18,9l-1.2,0.2l-0.1-0.8l1.2-0.2C18.8,8,19.6,7.6,20.2,7
	l0-0.1c0.5-0.5,1.3-0.8,2-0.6C23,6.4,23.6,7,23.9,7.7c0.3,0.7,0.1,1.5-0.3,2.1c-0.5,0.6-1.2,0.9-2,0.8c-0.9-0.1-1.8,0.1-2.6,0.6
	L18,11.8z"/>
<path class="st0" d="M7.8,22.8c-0.3,0-0.5-0.1-0.8-0.2c-0.4-0.2-0.8-0.6-1-1c-0.3-0.8,0-1.6,0.6-2.1c0.3-0.2,0.5-0.5,0.7-0.7
	C6.6,18.3,6,17.7,5.4,17l0.7-0.5c0.6,0.7,1.2,1.3,2,1.8l0.3,0.2l-0.2,0.3c-0.3,0.5-0.6,1-1.1,1.4c-0.4,0.3-0.4,0.8-0.3,1.1
	c0.1,0.3,0.3,0.5,0.5,0.6c0.2,0.1,0.5,0.1,0.8,0c0.4-0.2,0.7-0.5,0.7-1l0-0.1c0-0.6,0.1-1.1,0.3-1.7l0.2-0.3L9.6,19
	c0.9,0.3,1.8,0.4,2.7,0.4l0,0.8c-0.9,0-1.7-0.1-2.6-0.3c-0.1,0.3-0.1,0.6-0.1,1l0,0.1c0,0.8-0.5,1.5-1.2,1.8
	C8.2,22.8,8,22.8,7.8,22.8z"/>
<path class="st0" d="M3.6,12.6c-0.1-1,0-1.9,0.2-2.9C3.6,9.7,3.4,9.6,3.1,9.6L3,9.6c-0.8,0-1.5-0.5-1.8-1.2C1.1,7.9,1.1,7.4,1.3,7
	c0.2-0.4,0.6-0.8,1-1c0.8-0.3,1.6,0,2.1,0.6C4.6,6.9,4.8,7,5,7.2c0.5-0.8,1.1-1.4,1.9-2l0.5,0.7C6.6,6.5,6,7.2,5.5,8L5.3,8.4L5,8.2
	c-0.5-0.3-0.9-0.6-1.2-1C3.5,6.8,3,6.7,2.6,6.8C2.4,6.9,2.2,7.1,2.1,7.4C2,7.6,1.9,7.9,2,8.1c0.2,0.4,0.5,0.7,1,0.7l0.1,0
	c0.5,0,1,0.1,1.5,0.3l0.4,0.1L4.8,9.6c-0.3,1-0.4,1.9-0.3,2.9L3.6,12.6z"/>
<path class="st0" d="M16.9,18.6l-0.5-0.7c0.8-0.6,1.4-1.3,1.9-2.1l0.2-0.3l0.3,0.2c0.5,0.3,1,0.6,1.3,1.1c0.3,0.4,0.8,0.5,1.1,0.3
	c0.3-0.1,0.5-0.3,0.6-0.5c0.1-0.2,0.1-0.5,0-0.8c-0.2-0.4-0.5-0.7-1-0.7l0,0l-0.1,0c-0.6,0-1.1-0.1-1.6-0.3l-0.4-0.2l0.1-0.4
	c0.3-0.9,0.4-1.8,0.4-2.7l0.8,0c0,0.9-0.1,1.7-0.3,2.6c0.3,0.1,0.6,0.1,0.9,0.1l0,0l0.1,0c0.8,0,1.5,0.5,1.8,1.2
	c0.2,0.5,0.1,1-0.1,1.4c-0.2,0.4-0.6,0.8-1,1c-0.8,0.3-1.6,0-2.1-0.6c-0.2-0.3-0.5-0.5-0.7-0.7C18.3,17.4,17.6,18.1,16.9,18.6z"/>
<path class="st0" d="M18.1,7.6C17.5,6.7,16.8,6,16,5.5l-0.3-0.2l0.2-0.3c0.3-0.5,0.6-0.9,1-1.2c0.4-0.3,0.4-0.8,0.3-1.1
	c-0.1-0.3-0.3-0.5-0.5-0.6c-0.2-0.1-0.5-0.1-0.8,0c-0.4,0.2-0.7,0.5-0.7,1l0,0l0,0.1c0,0.5-0.1,1-0.2,1.5l-0.1,0.4l-0.4-0.1
	c-1-0.3-2-0.5-3-0.4l-0.1-0.8c1-0.1,1.9,0,2.9,0.3c0.1-0.2,0.1-0.5,0.1-0.8l0,0l0-0.1c0-0.8,0.5-1.5,1.2-1.8c0.5-0.2,1-0.1,1.4,0.1
	c0.4,0.2,0.8,0.6,1,1c0.3,0.8,0,1.6-0.6,2.1c-0.2,0.2-0.4,0.4-0.6,0.6c0.8,0.6,1.5,1.2,2.1,2.1L18.1,7.6z"/>
<path class="st0" d="M9,12.4c-0.3,0-0.5-0.1-0.8-0.2c-0.5-0.2-0.8-0.6-1-1.1c-0.4-1,0.1-2.1,1.1-2.4c1-0.4,2.1,0.2,2.4,1.1
	c0.2,0.5,0.1,1-0.1,1.4c-0.2,0.5-0.6,0.8-1.1,1C9.4,12.3,9.2,12.4,9,12.4z M9,9.4c-0.1,0-0.2,0-0.4,0.1C8.1,9.7,7.8,10.3,8,10.8
	c0.1,0.3,0.3,0.5,0.5,0.6c0.3,0.1,0.5,0.1,0.8,0c0.3-0.1,0.5-0.3,0.6-0.5c0.1-0.3,0.1-0.5,0-0.8C9.8,9.7,9.4,9.4,9,9.4z"/>
<path class="st0" d="M13.8,10.6c-0.8,0-1.5-0.5-1.8-1.2c-0.4-1,0.1-2.1,1.1-2.4c0.5-0.2,1-0.1,1.4,0.1c0.5,0.2,0.8,0.6,1,1.1
	c0.4,1-0.1,2.1-1.1,2.4C14.3,10.6,14.1,10.6,13.8,10.6z M13.8,7.7c-0.1,0-0.2,0-0.4,0.1c-0.5,0.2-0.8,0.8-0.6,1.3
	c0.2,0.5,0.8,0.8,1.3,0.6c0.5-0.2,0.8-0.8,0.6-1.3c-0.1-0.3-0.3-0.5-0.5-0.6C14.1,7.7,14,7.7,13.8,7.7z"/>
<path class="st0" d="M10.4,17c-0.3,0-0.5-0.1-0.8-0.2c-0.5-0.2-0.8-0.6-1-1.1c-0.4-1,0.1-2.1,1.1-2.4c1-0.4,2.1,0.1,2.4,1.1
	c0.4,1-0.2,2.1-1.1,2.4C10.8,17,10.6,17,10.4,17z M10.4,14.1c-0.1,0-0.2,0-0.4,0.1c-0.5,0.2-0.8,0.8-0.6,1.3
	c0.1,0.3,0.3,0.5,0.5,0.6c0.3,0.1,0.5,0.1,0.8,0c0.5-0.2,0.8-0.8,0.6-1.3C11.2,14.4,10.8,14.1,10.4,14.1z"/>
<path class="st0" d="M15.2,15.3c-0.3,0-0.5-0.1-0.8-0.2c-0.5-0.2-0.8-0.6-1-1.1c-0.4-1,0.1-2.1,1.1-2.4c1-0.4,2.1,0.1,2.4,1.1
	c0.2,0.5,0.1,1-0.1,1.4c-0.2,0.5-0.6,0.8-1.1,1C15.7,15.2,15.5,15.3,15.2,15.3z M15.2,12.4c-0.1,0-0.2,0-0.4,0.1
	c-0.5,0.2-0.8,0.8-0.6,1.3c0.2,0.5,0.8,0.8,1.3,0.6c0.3-0.1,0.5-0.3,0.6-0.5c0.1-0.3,0.1-0.5,0-0.8C16.1,12.6,15.7,12.4,15.2,12.4z"
	/>
</svg>
