<svg xmlns="http://www.w3.org/2000/svg" fill="none" viewBox="0 0 18.55 14.43">
  <path class="cls-1" fill="#143C8D" d="M.55,12.5v.37a1,1,0,0,0,1,1H15.69a1,1,0,0,0,.71-.29,1,1,0,0,0,.3-.72V12.5Zm15.14,1.93H1.56A1.55,1.55,0,0,1,.46,14,1.53,1.53,0,0,1,0,12.87v-.64A.27.27,0,0,1,.08,12,.24.24,0,0,1,.27,12H17a.27.27,0,0,1,.27.27v.64a1.57,1.57,0,0,1-1.56,1.56" />
  <path class="cls-1" fill="#143C8D" d="M8.62,5.36a1.45,1.45,0,0,0-.8.25,1.38,1.38,0,0,0-.53.64,1.43,1.43,0,0,0-.08.84,1.44,1.44,0,0,0,.39.74,1.4,1.4,0,0,0,.74.39,1.39,1.39,0,0,0,.83-.08,1.41,1.41,0,0,0,.65-.53,1.45,1.45,0,0,0-.18-1.82,1.48,1.48,0,0,0-1-.43m0,3.43A2,2,0,0,1,6.79,7.57a2,2,0,0,1-.12-1.15A2,2,0,0,1,8.23,4.86,2,2,0,0,1,9.38,5a2,2,0,0,1,.89.73A2,2,0,0,1,10,8.21a2,2,0,0,1-1.41.58" />
  <path class="cls-1" fill="#143C8D" d="M6.33,12h4.59v-.87a2.35,2.35,0,0,0-.15-.91,2.19,2.19,0,0,0-.49-.78,2.24,2.24,0,0,0-.76-.52,2.14,2.14,0,0,0-.9-.19,2.17,2.17,0,0,0-.9.19A2.45,2.45,0,0,0,7,9.4a2.34,2.34,0,0,0-.49.78,2.17,2.17,0,0,0-.14.91Zm4.86.54H6.05a.27.27,0,0,1-.27-.27V11.09A2.85,2.85,0,0,1,8.62,8.24a2.87,2.87,0,0,1,2.85,2.85v1.14a.27.27,0,0,1-.08.19.3.3,0,0,1-.2.08" />
  <path class="cls-1" fill="#143C8D" d="M12.8.55a.71.71,0,0,0-.49.21.66.66,0,0,0-.2.48V4.12a.76.76,0,0,0,.05.27.83.83,0,0,0,.15.23.64.64,0,0,0,.22.14.66.66,0,0,0,.27.06h.32a.16.16,0,0,1,.1,0,.28.28,0,0,1,.15.15.3.3,0,0,1,0,.1v.84a.06.06,0,0,0,0,.05h.05l1.06-1.06a.27.27,0,0,1,.19-.08H17.3a.58.58,0,0,0,.26-.06.54.54,0,0,0,.22-.15.54.54,0,0,0,.15-.22A.58.58,0,0,0,18,4.15V1.26A.68.68,0,0,0,17.3.57Zm.64,6a.62.62,0,0,1-.23,0,.61.61,0,0,1-.36-.55V5.39h0a1.33,1.33,0,0,1-.48-.1A1.21,1.21,0,0,1,11.93,5a1.13,1.13,0,0,1-.27-.41,1.1,1.1,0,0,1-.08-.48V1.24A1.23,1.23,0,0,1,12.82,0h4.49a1.27,1.27,0,0,1,.88.36,1.25,1.25,0,0,1,.36.88V4.12a1.25,1.25,0,0,1-.36.88,1.27,1.27,0,0,1-.88.36H14.85l-1,1a.86.86,0,0,1-.2.13.59.59,0,0,1-.23,0" />
  <path class="cls-1" fill="#143C8D" d="M15.05,2.5a.2.2,0,0,0-.11,0,.18.18,0,0,0-.07.08.25.25,0,0,0,0,.12.27.27,0,0,0,.06.1l.09,0a.17.17,0,0,0,.12,0,.18.18,0,0,0,.08-.07.15.15,0,0,0,0-.11.19.19,0,0,0,0-.07.1.1,0,0,0,0-.07l-.06,0h-.07m0,.54a.36.36,0,0,1-.2-.06.29.29,0,0,1-.13-.16.27.27,0,0,1,0-.2.31.31,0,0,1,.09-.18.35.35,0,0,1,.19-.1.35.35,0,0,1,.36.15.36.36,0,0,1,.06.2.35.35,0,0,1,0,.14.41.41,0,0,1-.07.11.37.37,0,0,1-.12.07.31.31,0,0,1-.13,0" />
  <path class="cls-1" fill="#143C8D" d="M16.33,2.5a.17.17,0,0,0-.12.06.19.19,0,0,0,0,.26.23.23,0,0,0,.12.06h.08s.05,0,.08,0l.05-.07a.22.22,0,0,0,0-.08.19.19,0,0,0,0-.08l-.05-.07-.08,0Zm0,.54a.3.3,0,0,1-.22-.12.33.33,0,0,1-.1-.23.37.37,0,0,1,.1-.24.33.33,0,0,1,.22-.11.38.38,0,0,1,.15,0l.13.07a.83.83,0,0,1,.08.12.4.4,0,0,1,0,.15.32.32,0,0,1,0,.14.36.36,0,0,1-.08.12.46.46,0,0,1-.13.08A.38.38,0,0,1,16.33,3Z" />
  <path class="cls-1" fill="#143C8D" d="M13.76,2.5a.23.23,0,0,0-.11,0,.22.22,0,0,0-.07.09.2.2,0,0,0,0,.11.31.31,0,0,0,0,.1.24.24,0,0,0,.1,0,.17.17,0,0,0,.12,0,.18.18,0,0,0,.08-.07.21.21,0,0,0,0-.11.2.2,0,0,0-.06-.14.24.24,0,0,0-.14,0m0,.54a.36.36,0,0,1-.2-.06.42.42,0,0,1-.13-.16.44.44,0,0,1,0-.2.37.37,0,0,1,.29-.28.35.35,0,0,1,.2,0,.4.4,0,0,1,.16.13.36.36,0,0,1,.06.2.41.41,0,0,1-.11.25.39.39,0,0,1-.25.1" />
  <path class="cls-1" fill="#143C8D" d="M1.51,12H15.74V5.39h-.9l-1,1a.59.59,0,0,1-.3.16.53.53,0,0,1-.35,0A.56.56,0,0,1,13,6.28a.58.58,0,0,1-.1-.33V5.39h0a1.37,1.37,0,0,1-.48-.1A1.21,1.21,0,0,1,11.93,5a1.13,1.13,0,0,1-.27-.41,1.1,1.1,0,0,1-.08-.48V1.89H2.52a1,1,0,0,0-.71.3,1,1,0,0,0-.3.72ZM16,12.5H1.25A.27.27,0,0,1,1,12.23V2.91A1.54,1.54,0,0,1,2.53,1.36h9.32a.27.27,0,0,1,.27.27V4.12a.68.68,0,0,0,.2.49.71.71,0,0,0,.49.21h.32a.26.26,0,0,1,.19.08.27.27,0,0,1,.08.19v.84a0,0,0,0,0,0,0l0,0h.06l1.06-1.06a.26.26,0,0,1,.19-.08H16a.32.32,0,0,1,.2.08.28.28,0,0,1,.08.2v7.13a.34.34,0,0,1-.09.19.27.27,0,0,1-.19.08" />
</svg>