<svg width="12" height="14" viewBox="0 0 12 14" fill="none" xmlns="http://www.w3.org/2000/svg">
  <path fill-rule="evenodd" clip-rule="evenodd" d="M4.35841 0.799978C4.14163 0.813878 3.93827 0.909795 3.78966 1.06823C3.64106 1.22667 3.55835 1.43575 3.55835 1.65297C3.55835 1.8702 3.64106 2.07928 3.78966 2.23772C3.93827 2.39616 4.14163 2.49207 4.35841 2.50597H7.74236C7.95914 2.49207 8.1625 2.39616 8.31111 2.23772C8.45971 2.07928 8.54242 1.8702 8.54242 1.65297C8.54242 1.43575 8.45971 1.22667 8.31111 1.06823C8.1625 0.909795 7.95914 0.813878 7.74236 0.799978H4.35841ZM7.74236 3.03844H4.35841C4.1597 3.06675 3.95723 3.05204 3.7647 2.99531C3.57217 2.93858 3.39408 2.84115 3.24247 2.70962C3.09086 2.57808 2.96929 2.41551 2.88596 2.23291C2.84021 2.13264 2.80658 2.02761 2.78555 1.92004H2.16873C1.93461 1.92004 1.71008 2.01305 1.54453 2.1786C1.37898 2.34416 1.28597 2.56868 1.28597 2.80281V12.0929C1.28597 12.327 1.37898 12.5516 1.54453 12.7171C1.71008 12.8827 1.93461 12.9757 2.16873 12.9757H9.92451C10.1586 12.9757 10.3832 12.8827 10.5487 12.7171C10.7143 12.5516 10.8073 12.327 10.8073 12.0929V2.80281C10.8073 2.56868 10.7143 2.34416 10.5487 2.1786C10.3832 2.01305 10.1586 1.92004 9.92451 1.92004H9.31522C9.29419 2.02761 9.26056 2.13264 9.2148 2.23291C9.13148 2.41551 9.0099 2.57808 8.8583 2.70962C8.70669 2.84115 8.5286 2.93858 8.33607 2.99531C8.14354 3.05204 7.94107 3.06675 7.74236 3.03844ZM2.88596 1.06954C2.83997 1.17033 2.80623 1.27593 2.78522 1.38408H2.16873C1.79275 1.385 1.43242 1.53477 1.16655 1.80063C0.90069 2.0665 0.750925 2.42682 0.75 2.80281V12.0929C0.750925 12.4689 0.90069 12.8292 1.16655 13.0951C1.43242 13.361 1.79275 13.5107 2.16873 13.5117H9.92451C10.3005 13.5107 10.6608 13.361 10.9267 13.0951C11.1926 12.8292 11.3423 12.4689 11.3432 12.0929V2.80281C11.3423 2.42682 11.1926 2.0665 10.9267 1.80063C10.6608 1.53477 10.3005 1.385 9.92451 1.38408H9.31555C9.29454 1.27593 9.2608 1.17033 9.2148 1.06954C9.13148 0.886937 9.0099 0.724364 8.8583 0.592829C8.70669 0.461294 8.5286 0.363866 8.33607 0.307137C8.14354 0.250407 7.94107 0.235697 7.74236 0.264011H4.35841C4.1597 0.235697 3.95723 0.250407 3.7647 0.307137C3.57217 0.363866 3.39408 0.461294 3.24247 0.592829C3.09086 0.724364 2.96929 0.886937 2.88596 1.06954ZM7.03911 9.42901C7.07653 9.4441 7.11671 9.45114 7.15703 9.44967C7.1968 9.45086 7.23638 9.44369 7.27319 9.4286C7.31001 9.41352 7.34323 9.39085 7.37072 9.36209L8.39711 8.24461H9.65822C9.72166 8.25057 9.78493 8.23159 9.83462 8.19171C9.88432 8.15182 9.91654 8.09416 9.92445 8.03093C9.91654 7.9677 9.88432 7.91003 9.83462 7.87015C9.78493 7.83026 9.72166 7.81128 9.65822 7.81724H8.2605C8.17947 7.8171 8.10158 7.84851 8.04331 7.90482L7.15703 8.87517L5.16029 6.69976C5.1027 6.64349 5.02538 6.61198 4.94486 6.61198C4.86434 6.61198 4.78701 6.64349 4.72941 6.69976L3.70302 7.81724H2.45593C2.3921 7.81122 2.3284 7.8301 2.27814 7.86991C2.22788 7.90973 2.19495 7.96741 2.1862 8.03093C2.19495 8.09445 2.22788 8.15214 2.27814 8.19195C2.3284 8.23177 2.3921 8.25063 2.45593 8.24461H3.83614C3.87638 8.24545 3.91637 8.23812 3.9537 8.22307C3.99103 8.20802 4.02492 8.18556 4.05333 8.15704L4.9466 7.18669L6.93984 9.36209C6.96786 9.39112 7.00169 9.41392 7.03911 9.42901Z" fill="#143C8D" />
  <path d="M3.78966 1.06823L3.71673 0.999824L3.78966 1.06823ZM4.35841 0.799978V0.699773L4.35201 0.700183L4.35841 0.799978ZM4.35841 2.50597L4.352 2.60597H4.35841V2.50597ZM7.74236 2.50597V2.60617L7.74876 2.60576L7.74236 2.50597ZM8.31111 1.06823L8.38404 0.999824L8.31111 1.06823ZM7.74236 0.799978L7.74877 0.699979H7.74236V0.799978ZM4.35841 3.03844V2.93743L4.3443 2.93944L4.35841 3.03844ZM7.74236 3.03844L7.75661 2.93844H7.74236V3.03844ZM3.7647 2.99531L3.73644 3.09123L3.7647 2.99531ZM2.88596 2.23291L2.97694 2.1914L2.88596 2.23291ZM2.78555 1.92004L2.88369 1.90086L2.86789 1.82004H2.78555V1.92004ZM10.5487 12.7171L10.478 12.6464H10.478L10.5487 12.7171ZM10.5487 2.1786L10.478 2.24931L10.478 2.24931L10.5487 2.1786ZM9.31522 1.92004V1.82004H9.23288L9.21708 1.90086L9.31522 1.92004ZM9.2148 2.23291L9.30578 2.27442L9.30578 2.27442L9.2148 2.23291ZM8.33607 2.99531L8.36433 3.09123L8.33607 2.99531ZM2.78522 1.38408V1.48408H2.86767L2.88339 1.40314L2.78522 1.38408ZM2.88596 1.06954L2.79499 1.02803V1.02803L2.88596 1.06954ZM2.16873 1.38408V1.28408L2.16849 1.28408L2.16873 1.38408ZM1.16655 1.80063L1.23727 1.87134H1.23727L1.16655 1.80063ZM0.75 2.80281L0.65 2.80256V2.80281H0.75ZM0.75 12.0929H0.65L0.65 12.0932L0.75 12.0929ZM1.16655 13.0951L1.09584 13.1658L1.09584 13.1658L1.16655 13.0951ZM2.16873 13.5117L2.16849 13.6117H2.16873V13.5117ZM9.92451 13.5117V13.6117L9.92475 13.6117L9.92451 13.5117ZM11.3432 12.0929L11.4432 12.0932V12.0929H11.3432ZM11.3432 2.80281H11.4432L11.4432 2.80256L11.3432 2.80281ZM10.9267 1.80063L10.856 1.87134L10.856 1.87134L10.9267 1.80063ZM9.92451 1.38408L9.92475 1.28408H9.92451V1.38408ZM9.31555 1.38408L9.21738 1.40314L9.2331 1.48408H9.31555V1.38408ZM9.2148 1.06954L9.30578 1.02803L9.30578 1.02803L9.2148 1.06954ZM8.8583 0.592829L8.79276 0.668363L8.8583 0.592829ZM8.33607 0.307137L8.36433 0.211214V0.211214L8.33607 0.307137ZM7.74236 0.264011V0.364011H7.74945L7.75647 0.363011L7.74236 0.264011ZM4.35841 0.264011L4.3443 0.363011L4.35132 0.364011H4.35841V0.264011ZM3.7647 0.307137L3.73644 0.211214L3.73644 0.211214L3.7647 0.307137ZM3.24247 0.592829L3.308 0.668363L3.24247 0.592829ZM7.15703 9.44967L7.16005 9.34949L7.15337 9.34973L7.15703 9.44967ZM7.03911 9.42901L7.07651 9.33627H7.07651L7.03911 9.42901ZM7.27319 9.4286L7.23527 9.33607L7.23527 9.33607L7.27319 9.4286ZM7.37072 9.36209L7.44303 9.43119L7.44437 9.42973L7.37072 9.36209ZM8.39711 8.24461V8.14461H8.35318L8.32347 8.17697L8.39711 8.24461ZM9.65822 8.24461L9.6676 8.14461H9.65822V8.24461ZM9.83462 8.19171L9.77203 8.11372L9.77203 8.11372L9.83462 8.19171ZM9.92445 8.03093L10.0237 8.04335L10.0252 8.03093L10.0237 8.01851L9.92445 8.03093ZM9.83462 7.87015L9.77203 7.94813L9.77203 7.94813L9.83462 7.87015ZM9.65822 7.81724V7.91768L9.66756 7.9168L9.65822 7.81724ZM8.2605 7.81724L8.26033 7.91724H8.2605V7.81724ZM8.04331 7.90482L7.97369 7.83277L7.96948 7.83738L8.04331 7.90482ZM7.15703 8.87517L7.08336 8.94279L7.15721 9.02325L7.23087 8.94261L7.15703 8.87517ZM5.16029 6.69976L5.23407 6.63204L5.23018 6.62824L5.16029 6.69976ZM4.72941 6.69976L4.65942 6.62813L4.65576 6.63212L4.72941 6.69976ZM3.70302 7.81724V7.91724H3.74695L3.77667 7.88488L3.70302 7.81724ZM2.45593 7.81724L2.44651 7.91724H2.45593V7.81724ZM2.27814 7.86991L2.34024 7.9483L2.34024 7.9483L2.27814 7.86991ZM2.1862 8.03093L2.08714 8.01729L2.08526 8.03093L2.08714 8.04457L2.1862 8.03093ZM2.27814 8.19195L2.21604 8.27034L2.27814 8.19195ZM2.45593 8.24461V8.14417L2.44655 8.14505L2.45593 8.24461ZM3.83614 8.24461L3.83822 8.14461H3.83614V8.24461ZM3.9537 8.22307L3.9911 8.31582L3.9911 8.31581L3.9537 8.22307ZM4.05333 8.15704L4.12424 8.22766L4.1269 8.22476L4.05333 8.15704ZM4.9466 7.18669L5.02033 7.11914L4.94677 7.03886L4.87303 7.11897L4.9466 7.18669ZM6.93984 9.36209L6.86609 9.42967L6.86789 9.43153L6.93984 9.36209ZM3.8626 1.13665C3.99382 0.996743 4.17339 0.912047 4.36481 0.899774L4.35201 0.700183C4.10987 0.715709 3.88272 0.822848 3.71673 0.999824L3.8626 1.13665ZM3.65835 1.65297C3.65835 1.46116 3.73138 1.27655 3.8626 1.13665L3.71673 0.999824C3.55073 1.1768 3.45835 1.41033 3.45835 1.65297H3.65835ZM3.8626 2.16931C3.73138 2.02941 3.65835 1.84479 3.65835 1.65297H3.45835C3.45835 1.89561 3.55073 2.12915 3.71673 2.30613L3.8626 2.16931ZM4.36481 2.40617C4.17338 2.3939 3.99382 2.30921 3.8626 2.16931L3.71673 2.30613C3.88272 2.48311 4.10987 2.59024 4.35201 2.60576L4.36481 2.40617ZM7.74236 2.40597H4.35841V2.60597H7.74236V2.40597ZM8.23817 2.16931C8.10695 2.30921 7.92738 2.3939 7.73596 2.40617L7.74876 2.60576C7.9909 2.59024 8.21805 2.48311 8.38404 2.30613L8.23817 2.16931ZM8.44242 1.65297C8.44242 1.84478 8.36939 2.02941 8.23817 2.16931L8.38404 2.30613C8.55004 2.12915 8.64242 1.89561 8.64242 1.65297H8.44242ZM8.23817 1.13665C8.36939 1.27655 8.44242 1.46116 8.44242 1.65297H8.64242C8.64242 1.41033 8.55003 1.1768 8.38404 0.999824L8.23817 1.13665ZM7.73596 0.899774C7.92738 0.912047 8.10695 0.996743 8.23817 1.13665L8.38404 0.999824C8.21805 0.822848 7.9909 0.715709 7.74876 0.700183L7.73596 0.899774ZM4.35841 0.899979H7.74236V0.699979H4.35841V0.899979ZM4.35841 3.13844H7.74236V2.93844H4.35841V3.13844ZM3.73644 3.09123C3.94271 3.15201 4.15962 3.16777 4.37251 3.13744L4.3443 2.93944C4.15978 2.96573 3.97176 2.95207 3.79296 2.89939L3.73644 3.09123ZM3.17694 2.78515C3.33936 2.92608 3.53017 3.03046 3.73644 3.09123L3.79296 2.89939C3.61417 2.84671 3.44879 2.75623 3.308 2.63409L3.17694 2.78515ZM2.79499 2.27442C2.88426 2.47006 3.01451 2.64423 3.17694 2.78515L3.308 2.63409C3.16722 2.51194 3.05432 2.36097 2.97694 2.1914L2.79499 2.27442ZM2.68741 1.93923C2.70993 2.05447 2.74597 2.16699 2.79499 2.27442L2.97694 2.1914C2.93445 2.09828 2.90322 2.00074 2.88369 1.90086L2.68741 1.93923ZM2.16873 2.02004H2.78555V1.82004H2.16873V2.02004ZM1.61524 2.24931C1.76204 2.10252 1.96113 2.02004 2.16873 2.02004V1.82004C1.90809 1.82004 1.65812 1.92359 1.47382 2.10789L1.61524 2.24931ZM1.38597 2.80281C1.38597 2.59521 1.46844 2.39611 1.61524 2.24931L1.47382 2.10789C1.28951 2.2922 1.18597 2.54216 1.18597 2.80281H1.38597ZM1.38597 12.0929V2.80281H1.18597V12.0929H1.38597ZM1.61524 12.6464C1.46844 12.4996 1.38597 12.3005 1.38597 12.0929H1.18597C1.18597 12.3536 1.28951 12.6035 1.47382 12.7878L1.61524 12.6464ZM2.16873 12.8757C1.96113 12.8757 1.76204 12.7932 1.61524 12.6464L1.47382 12.7878C1.65812 12.9721 1.90809 13.0757 2.16873 13.0757V12.8757ZM9.92451 12.8757H2.16873V13.0757H9.92451V12.8757ZM10.478 12.6464C10.3312 12.7932 10.1321 12.8757 9.92451 12.8757V13.0757C10.1852 13.0757 10.4351 12.9721 10.6194 12.7878L10.478 12.6464ZM10.7073 12.0929C10.7073 12.3005 10.6248 12.4996 10.478 12.6464L10.6194 12.7878C10.8037 12.6035 10.9073 12.3536 10.9073 12.0929H10.7073ZM10.7073 2.80281V12.0929H10.9073V2.80281H10.7073ZM10.478 2.24931C10.6248 2.39611 10.7073 2.59521 10.7073 2.80281H10.9073C10.9073 2.54216 10.8037 2.2922 10.6194 2.10789L10.478 2.24931ZM9.92451 2.02004C10.1321 2.02004 10.3312 2.10252 10.478 2.24931L10.6194 2.10789C10.4351 1.92359 10.1852 1.82004 9.92451 1.82004V2.02004ZM9.31522 2.02004H9.92451V1.82004H9.31522V2.02004ZM9.30578 2.27442C9.3548 2.16699 9.39083 2.05447 9.41336 1.93923L9.21708 1.90086C9.19755 2.00074 9.16632 2.09828 9.12383 2.1914L9.30578 2.27442ZM8.92383 2.78515C9.08626 2.64423 9.21651 2.47006 9.30578 2.27442L9.12383 2.1914C9.04645 2.36097 8.93355 2.51194 8.79276 2.63409L8.92383 2.78515ZM8.36433 3.09123C8.5706 3.03046 8.7614 2.92608 8.92383 2.78515L8.79276 2.63409C8.65198 2.75623 8.48659 2.84671 8.3078 2.89939L8.36433 3.09123ZM7.72825 3.13744C7.94114 3.16777 8.15806 3.15201 8.36433 3.09123L8.3078 2.89939C8.12901 2.95207 7.94099 2.96573 7.75647 2.93944L7.72825 3.13744ZM2.88339 1.40314C2.90289 1.30272 2.93423 1.20465 2.97694 1.11105L2.79499 1.02803C2.74571 1.13601 2.70956 1.24915 2.68706 1.36501L2.88339 1.40314ZM2.16873 1.48408H2.78522V1.28408H2.16873V1.48408ZM1.23727 1.87134C1.48444 1.62417 1.81943 1.48494 2.16898 1.48408L2.16849 1.28408C1.76606 1.28507 1.3804 1.44536 1.09584 1.72992L1.23727 1.87134ZM0.85 2.80306C0.85086 2.4535 0.990095 2.11851 1.23727 1.87134L1.09584 1.72992C0.811285 2.01448 0.65099 2.40014 0.65 2.80256L0.85 2.80306ZM0.85 12.0929V2.80281H0.65V12.0929H0.85ZM1.23727 13.0244C0.990094 12.7772 0.85086 12.4422 0.85 12.0927L0.65 12.0932C0.65099 12.4956 0.811286 12.8812 1.09584 13.1658L1.23727 13.0244ZM2.16898 13.4117C1.81943 13.4108 1.48444 13.2716 1.23727 13.0244L1.09584 13.1658C1.3804 13.4504 1.76606 13.6107 2.16849 13.6117L2.16898 13.4117ZM9.92451 13.4117H2.16873V13.6117H9.92451V13.4117ZM10.856 13.0244C10.6088 13.2716 10.2738 13.4108 9.92426 13.4117L9.92475 13.6117C10.3272 13.6107 10.7128 13.4504 10.9974 13.1658L10.856 13.0244ZM11.2432 12.0927C11.2424 12.4422 11.1031 12.7772 10.856 13.0244L10.9974 13.1658C11.282 12.8812 11.4423 12.4956 11.4432 12.0932L11.2432 12.0927ZM11.2432 2.80281V12.0929H11.4432V2.80281H11.2432ZM10.856 1.87134C11.1031 2.11851 11.2424 2.4535 11.2432 2.80306L11.4432 2.80256C11.4423 2.40014 11.282 2.01448 10.9974 1.72992L10.856 1.87134ZM9.92426 1.48408C10.2738 1.48494 10.6088 1.62417 10.856 1.87134L10.9974 1.72992C10.7128 1.44536 10.3272 1.28507 9.92475 1.28408L9.92426 1.48408ZM9.31555 1.48408H9.92451V1.28408H9.31555V1.48408ZM9.12383 1.11105C9.16654 1.20465 9.19788 1.30272 9.21738 1.40314L9.41371 1.36501C9.39121 1.24915 9.35505 1.13601 9.30578 1.02803L9.12383 1.11105ZM8.79276 0.668363C8.93355 0.79051 9.04645 0.941481 9.12383 1.11105L9.30578 1.02803C9.21651 0.832393 9.08626 0.658218 8.92383 0.517295L8.79276 0.668363ZM8.3078 0.403059C8.48659 0.45574 8.65198 0.546215 8.79276 0.668363L8.92383 0.517295C8.7614 0.376373 8.5706 0.271992 8.36433 0.211214L8.3078 0.403059ZM7.75647 0.363011C7.94099 0.336718 8.12901 0.350378 8.3078 0.403059L8.36433 0.211214C8.15806 0.150436 7.94114 0.134676 7.72825 0.165011L7.75647 0.363011ZM4.35841 0.364011H7.74236V0.164011H4.35841V0.364011ZM3.79296 0.403059C3.97176 0.350378 4.15978 0.336718 4.3443 0.363011L4.37251 0.165011C4.15962 0.134676 3.94271 0.150436 3.73644 0.211214L3.79296 0.403059ZM3.308 0.668363C3.44879 0.546215 3.61417 0.45574 3.79296 0.403059L3.73644 0.211214C3.53017 0.271992 3.33936 0.376373 3.17694 0.517295L3.308 0.668363ZM2.97694 1.11105C3.05432 0.941481 3.16722 0.79051 3.308 0.668363L3.17694 0.517295C3.01451 0.658218 2.88426 0.832393 2.79499 1.02803L2.97694 1.11105ZM7.15337 9.34973C7.1271 9.35069 7.10091 9.34611 7.07651 9.33627L7.00172 9.52175C7.05216 9.54209 7.10632 9.55159 7.16069 9.5496L7.15337 9.34973ZM7.23527 9.33607C7.21144 9.34584 7.18581 9.35049 7.16004 9.34971L7.15402 9.54962C7.20779 9.55124 7.26132 9.54154 7.31112 9.52113L7.23527 9.33607ZM7.29843 9.293C7.28062 9.31163 7.2591 9.32631 7.23527 9.33607L7.31111 9.52114C7.36091 9.50073 7.40585 9.47007 7.44302 9.43118L7.29843 9.293ZM8.32347 8.17697L7.29707 9.29444L7.44437 9.42973L8.47076 8.31226L8.32347 8.17697ZM9.65822 8.14461H8.39711V8.34461H9.65822V8.14461ZM9.77203 8.11372C9.7426 8.13734 9.70513 8.14858 9.66756 8.14505L9.64887 8.34418C9.73819 8.35256 9.82726 8.32584 9.89722 8.26969L9.77203 8.11372ZM9.82523 8.01851C9.82054 8.05594 9.80146 8.09009 9.77203 8.11372L9.89721 8.26969C9.96717 8.21355 10.0125 8.13238 10.0237 8.04335L9.82523 8.01851ZM9.77203 7.94813C9.80146 7.97176 9.82054 8.00591 9.82523 8.04335L10.0237 8.01851C10.0125 7.92949 9.96717 7.84831 9.89721 7.79216L9.77203 7.94813ZM9.66756 7.9168C9.70513 7.91328 9.7426 7.92451 9.77203 7.94813L9.89722 7.79216C9.82726 7.73601 9.73819 7.70929 9.64887 7.71768L9.66756 7.9168ZM8.2605 7.91724H9.65822V7.71724H8.2605V7.91724ZM8.1128 7.97673C8.15238 7.93848 8.20529 7.91714 8.26033 7.91724L8.26067 7.71724C8.15366 7.71706 8.05078 7.75854 7.97382 7.83291L8.1128 7.97673ZM7.23087 8.94261L8.11715 7.97226L7.96948 7.83738L7.08319 8.80773L7.23087 8.94261ZM5.08662 6.76738L7.08336 8.94279L7.2307 8.80755L5.23396 6.63214L5.08662 6.76738ZM4.94486 6.71198C4.99926 6.71198 5.05149 6.73327 5.09041 6.77129L5.23018 6.62824C5.15391 6.55371 5.0515 6.51198 4.94486 6.51198V6.71198ZM4.7993 6.77129C4.83821 6.73327 4.89046 6.71198 4.94486 6.71198V6.51198C4.83822 6.51198 4.7358 6.55371 4.65953 6.62824L4.7993 6.77129ZM3.77667 7.88488L4.80306 6.76741L4.65576 6.63212L3.62937 7.74959L3.77667 7.88488ZM2.45593 7.91724H3.70302V7.71724H2.45593V7.91724ZM2.34024 7.9483C2.37029 7.92448 2.40838 7.9132 2.44655 7.9168L2.46532 7.71768C2.37581 7.70924 2.2865 7.73571 2.21604 7.79153L2.34024 7.9483ZM2.28527 8.04457C2.2905 8.00659 2.31019 7.9721 2.34024 7.9483L2.21604 7.79153C2.14557 7.84736 2.0994 7.92824 2.08714 8.01729L2.28527 8.04457ZM2.34024 8.11357C2.31019 8.08977 2.2905 8.05528 2.28527 8.01729L2.08714 8.04457C2.0994 8.13362 2.14557 8.21451 2.21604 8.27034L2.34024 8.11357ZM2.44655 8.14505C2.40837 8.14865 2.37028 8.13737 2.34024 8.11357L2.21604 8.27034C2.28651 8.32616 2.37582 8.35261 2.46532 8.34417L2.44655 8.14505ZM3.83614 8.14461H2.45593V8.34461H3.83614V8.14461ZM3.9163 8.13033C3.89151 8.14033 3.86495 8.14519 3.83822 8.14463L3.83405 8.34459C3.88781 8.34571 3.94123 8.33592 3.9911 8.31582L3.9163 8.13033ZM3.98247 8.08647C3.96361 8.10541 3.9411 8.12033 3.9163 8.13033L3.9911 8.31581C4.04096 8.29571 4.08624 8.2657 4.12418 8.2276L3.98247 8.08647ZM4.87303 7.11897L3.97975 8.08931L4.1269 8.22476L5.02017 7.25442L4.87303 7.11897ZM7.01357 9.29453L5.02033 7.11914L4.87287 7.25425L6.86611 9.42964L7.01357 9.29453ZM7.07651 9.33627C7.05211 9.32643 7.03005 9.31156 7.01179 9.29264L6.86789 9.43153C6.90567 9.47068 6.95128 9.50142 7.00172 9.52175L7.07651 9.33627Z" fill="#143C8D" />
</svg>