<svg xmlns="http://www.w3.org/2000/svg" fill="none" viewBox="0 0 19.01 23.71">
  <path class="cls-1" fill="#143C8D" d="M5.53,1.62,5.4,1.5Zm1-.48V1h0Zm0,3v.18h0Zm6,0v.18h0Zm1-2.53.12-.12Zm-1-.48,0-.17h0Zm-6,4V4.91h0Zm6,0,0-.18h0ZM5.49,5l0,.17ZM3.94,3.67,4.1,3.6Zm-.18-.55.17,0,0-.14H3.76Zm13.68,19L17.31,22h0Zm0-18.57-.13.13h0Zm-2.18-.45V2.94h-.14l0,.14Zm-.17.55.16.07h0ZM13.54,5l.05.17ZM3.76,2.17v.18h.15l0-.14Zm.18-.55-.16-.07h0Zm-1.26.55V2h0ZM.91,2.91,1,3H1ZM.18,4.67h0ZM.18,21h0ZM.91,22.8l-.12.13h0Zm1.77.74v.17h0Zm13.66,0v.17h0Zm2.5-2.5h0Zm0-16.37h0ZM18.1,2.91,18,3h0Zm-1.76-.74V2h0Zm-1.07,0-.18,0,0,.14h.15Zm-.18-.55.16-.07h0ZM14.46.78l-.12.13Zm-.92-.5.05-.17h0Zm-1-.08V.38h0Zm-6,0,0,.18h0Zm-1,.08,0-.17h0Zm-.92.5.11.13Zm6.89,15.6v-.17h0Zm-.21,0,.07-.17h0Zm.42,0-.07-.17h0Zm.17-.12.13.12h0Zm1.81-2v-.18h-.08l-.05.06Zm2.22,0,0-.18h0Zm.31-.09L16.07,14h0Zm.16-.29.17,0v0Zm-.16-.28-.11.14h0Zm-.31-.09v.17h0Zm-2.46,0v.17h0Zm-.39.15-.12-.13h0Zm-1.56,1.71-.13.12.13.14.13-.14ZM8,11.54l.13-.12h0Zm-.76,0-.13-.13h0Zm-1.81,2v.17h.08l0,0Zm-2.2,0,0,.17h0Zm-.31.09.11.14H3Zm-.16.28-.18,0v.05Zm.16.29-.11.13Zm.31.09v-.18h0Zm2.43,0v-.18h0Zm.21,0,.07.16h0ZM6,14.11l.12.12h0ZM7.57,12.4l.13-.12-.13-.14-.13.14Zm3.51,3.83-.13.12h0ZM5.66,1.74a1.31,1.31,0,0,1,.88-.42l0-.35A1.69,1.69,0,0,0,5.4,1.5Zm-.36.91a1.32,1.32,0,0,1,.36-.91L5.4,1.5A1.68,1.68,0,0,0,5,2.65Zm.36.91a1.34,1.34,0,0,1-.36-.91H5A1.68,1.68,0,0,0,5.4,3.8ZM6.54,4a1.35,1.35,0,0,1-.88-.41L5.4,3.8a1.69,1.69,0,0,0,1.12.53Zm6,0h-6v.36h6Zm.88-.41a1.35,1.35,0,0,1-.89.41l0,.36a1.69,1.69,0,0,0,1.11-.53Zm.36-.91a1.34,1.34,0,0,1-.36.91l.25.24a1.64,1.64,0,0,0,.46-1.15Zm-.36-.91a1.32,1.32,0,0,1,.36.91h.35a1.64,1.64,0,0,0-.46-1.15Zm-.89-.42a1.31,1.31,0,0,1,.89.42l.25-.24A1.69,1.69,0,0,0,12.51,1Zm-5.95,0h6V1h-6Zm0,3.94h6V4.91h-6ZM5.44,5.18a2.49,2.49,0,0,0,1.12.08l0-.35a2.12,2.12,0,0,1-1-.07Zm-1-.54a2.66,2.66,0,0,0,1,.54l.1-.34a2.31,2.31,0,0,1-.86-.46Zm-.67-.9a2.72,2.72,0,0,0,.67.9l.23-.26A2.45,2.45,0,0,1,4.1,3.6Zm-.19-.59a2.54,2.54,0,0,0,.19.59L4.1,3.6a2.43,2.43,0,0,1-.17-.52Zm-.91.14H3.76V2.94H2.68Zm-1,.41a1.39,1.39,0,0,1,1-.41V2.94a1.73,1.73,0,0,0-1.23.51Zm-.4,1a1.37,1.37,0,0,1,.4-1l-.25-.25A1.73,1.73,0,0,0,.94,4.67ZM1.3,21V4.67H.94V21Zm.4,1a1.37,1.37,0,0,1-.4-1H.94a1.73,1.73,0,0,0,.51,1.22Zm1,.41a1.39,1.39,0,0,1-1-.41l-.25.25a1.73,1.73,0,0,0,1.23.51Zm13.66,0H2.68v.35H16.34Zm1-.41a1.38,1.38,0,0,1-1,.41v.35a1.69,1.69,0,0,0,1.22-.51Zm.41-1a1.38,1.38,0,0,1-.41,1l.25.25A1.69,1.69,0,0,0,18.07,21Zm0-16.37V21h.35V4.67Zm-.41-1a1.38,1.38,0,0,1,.41,1h.35a1.69,1.69,0,0,0-.51-1.22Zm-1-.41a1.38,1.38,0,0,1,1,.41l.25-.25a1.69,1.69,0,0,0-1.22-.51Zm-1.08,0h1.08V2.94H15.26Zm0,.45a3.12,3.12,0,0,0,.19-.59l-.35-.07a2.4,2.4,0,0,1-.16.52Zm-.67.9a2.72,2.72,0,0,0,.67-.9l-.32-.14a2.48,2.48,0,0,1-.59.78Zm-1,.54a2.74,2.74,0,0,0,1-.54l-.24-.26a2.27,2.27,0,0,1-.85.46Zm-1.12.08a2.5,2.5,0,0,0,1.12-.08l-.1-.34a2.14,2.14,0,0,1-1,.07Zm-8.54-3a2.43,2.43,0,0,1,.17-.52l-.32-.14a2.54,2.54,0,0,0-.19.59Zm-1.25.14H3.76V2H2.68ZM1,3a2.36,2.36,0,0,1,1.65-.68V2a2.67,2.67,0,0,0-1.88.78ZM.35,4.67A2.36,2.36,0,0,1,1,3L.79,2.78A2.64,2.64,0,0,0,0,4.67ZM.35,21V4.67H0V21ZM1,22.68A2.36,2.36,0,0,1,.35,21H0a2.64,2.64,0,0,0,.79,1.89Zm1.65.68A2.36,2.36,0,0,1,1,22.68l-.24.25a2.67,2.67,0,0,0,1.88.78Zm13.66,0H2.68v.35H16.34ZM18,22.68a2.36,2.36,0,0,1-1.64.68v.35a2.67,2.67,0,0,0,1.89-.78ZM18.66,21A2.36,2.36,0,0,1,18,22.68l.25.25A2.67,2.67,0,0,0,19,21Zm0-16.37V21H19V4.67ZM18,3a2.36,2.36,0,0,1,.68,1.64H19a2.67,2.67,0,0,0-.78-1.89Zm-1.64-.68A2.36,2.36,0,0,1,18,3l.25-.25A2.67,2.67,0,0,0,16.34,2Zm-1.07,0h1.07V2H15.27Zm-.34-.66a2.4,2.4,0,0,1,.16.52l.35-.07a3.12,3.12,0,0,0-.19-.59ZM14.34.91a2.37,2.37,0,0,1,.59.78l.32-.14a2.72,2.72,0,0,0-.67-.9ZM13.49.45a2.27,2.27,0,0,1,.85.46l.24-.26a2.6,2.6,0,0,0-1-.54Zm-1-.07a2.14,2.14,0,0,1,1,.07l.1-.34A2.5,2.5,0,0,0,12.47,0Zm-6,0h6V0h-6Zm-1,.07a2.12,2.12,0,0,1,1-.07l0-.35A2.49,2.49,0,0,0,5.44.11ZM4.68.91A2.31,2.31,0,0,1,5.54.45L5.44.11a2.53,2.53,0,0,0-1,.54Zm-.58.78A2.34,2.34,0,0,1,4.68.91L4.45.65a2.72,2.72,0,0,0-.67.9Zm7.36,14.52a.32.32,0,0,1-.14,0l-.13.33a.66.66,0,0,0,.28,0Zm.14,0a.31.31,0,0,1-.13,0v.35a.81.81,0,0,0,.27,0Zm.11-.07a.41.41,0,0,1-.11.07l.13.33a.78.78,0,0,0,.24-.16Zm1.81-2-1.81,2,.26.24,1.81-2Zm2.35-.06H13.65v.36h2.22Zm.2-.05a.24.24,0,0,1-.18.05l0,.35a.58.58,0,0,0,.44-.13Zm.09-.17a.26.26,0,0,1-.09.17l.22.27a.62.62,0,0,0,.22-.4Zm-.09-.12a.26.26,0,0,1,.09.16l.35,0a.62.62,0,0,0-.22-.4Zm-.18-.06a.3.3,0,0,1,.18.06l.22-.28a.62.62,0,0,0-.44-.13Zm-2.48,0h2.46v-.35H13.41Zm-.26.11a.36.36,0,0,1,.26-.11v-.35a.74.74,0,0,0-.51.2Zm-1.56,1.7,1.56-1.71-.26-.24-1.56,1.71ZM7.82,11.66l3.51,3.83.26-.24L8.08,11.42Zm-.25-.1a.39.39,0,0,1,.25.1l.25-.25a.74.74,0,0,0-.5-.2Zm-.26.1a.4.4,0,0,1,.26-.1v-.35a.74.74,0,0,0-.51.2Zm-1.8,2,1.81-2-.26-.24-1.81,2Zm-2.33,0h2.2v-.35H3.18Zm-.2.06a.3.3,0,0,1,.18-.06l0-.35a.62.62,0,0,0-.44.13Zm-.1.17a.23.23,0,0,1,.1-.17l-.22-.28a.59.59,0,0,0-.23.4ZM3,14a.23.23,0,0,1-.1-.17l-.35.05a.57.57,0,0,0,.23.39Zm.18.05A.24.24,0,0,1,3,14l-.22.27a.58.58,0,0,0,.44.13Zm2.45,0H3.18v.36H5.61Zm.14,0a.3.3,0,0,1-.13,0v.36a.71.71,0,0,0,.28-.06ZM5.87,14a.36.36,0,0,1-.12.08l.14.32a.65.65,0,0,0,.23-.15Zm1.57-1.7L5.87,14l.25.23,1.58-1.7Zm3.77,3.83L7.7,12.28l-.26.23L11,16.35Zm.11.07a.26.26,0,0,1-.11-.07l-.26.24a.78.78,0,0,0,.24.16Z" />
</svg>