<svg xmlns="http://www.w3.org/2000/svg" viewBox="0 0 18.24 22.75"><defs><style>.cls-1,.cls-2{fill:#143c8d;}.cls-1{fill-rule:evenodd;}</style></defs><title>prancheta</title><g id="Camada_2" data-name="Camada 2"><g id="Camada_1-2" data-name="Camada 1"><path class="cls-1" d="M6.27,1.1a1.4,1.4,0,0,0-1,.45,1.43,1.43,0,0,0,0,2,1.4,1.4,0,0,0,1,.45H12a1.42,1.42,0,0,0,1-.45,1.45,1.45,0,0,0,0-2,1.42,1.42,0,0,0-1-.45ZM12,4.88H6.27a2.46,2.46,0,0,1-1-.07,2.52,2.52,0,0,1-.88-.48,2.38,2.38,0,0,1-.6-.81A2,2,0,0,1,3.61,3h-1a1.5,1.5,0,0,0-1.5,1.49v15.7a1.49,1.49,0,0,0,1.5,1.49h13.1a1.47,1.47,0,0,0,1.49-1.49V4.48a1.48,1.48,0,0,0-.43-1.05A1.5,1.5,0,0,0,15.67,3h-1a2,2,0,0,1-.17.53,2.38,2.38,0,0,1-.6.81A2.35,2.35,0,0,1,12,4.88ZM3.78,1.55a2,2,0,0,0-.17.54h-1A2.39,2.39,0,0,0,.17,4.48v15.7a2.39,2.39,0,0,0,2.4,2.4h13.1a2.39,2.39,0,0,0,2.4-2.4V4.48a2.39,2.39,0,0,0-2.4-2.39h-1a2,2,0,0,0-.17-.54,2.34,2.34,0,0,0-.6-.8A2.3,2.3,0,0,0,13,.27a2.27,2.27,0,0,0-1-.08H6.27a2.3,2.3,0,0,0-1,.08,2.37,2.37,0,0,0-.88.48A2.34,2.34,0,0,0,3.78,1.55Zm7,14.13a.45.45,0,0,0,.2,0,.43.43,0,0,0,.19,0,.62.62,0,0,0,.17-.11l1.73-1.89h2.13a.4.4,0,0,0,.3-.09.39.39,0,0,0,.15-.27.36.36,0,0,0-.15-.27.4.4,0,0,0-.3-.09H12.86a.55.55,0,0,0-.37.14L11,14.74,7.62,11.07a.51.51,0,0,0-.36-.15.51.51,0,0,0-.37.15L5.16,13H3.05a.41.41,0,0,0-.3.09.39.39,0,0,0-.15.27.41.41,0,0,0,.45.36H5.38a.45.45,0,0,0,.2,0,.39.39,0,0,0,.17-.11l1.51-1.64,3.37,3.68A.39.39,0,0,0,10.8,15.68Z"/><path class="cls-2" d="M5.31,1.55l-.13-.11Zm1-.45V.93h0ZM6.27,4v.17h0ZM12,4v.17h0Zm1-2.43.12-.11ZM12,1.1V.93h0ZM6.27,4.88V4.71h0Zm5.72,0,0-.17h0ZM5.26,4.81l0,.16ZM3.78,3.52l.15-.07ZM3.61,3l.16,0,0-.14H3.61ZM16.73,21.24l-.12-.12h0Zm0-17.81-.12.12h0ZM14.64,3V2.82H14.5l0,.14Zm-.17.53.16.07h0ZM13,4.81,13,5ZM3.61,2.09v.16h.14l0-.13Zm.17-.54-.16-.07h0Zm-1.21.54V1.92h0Zm-1.7.7L1,2.91H1ZM.17,4.48h0Zm0,15.7h0Zm.7,1.7L.75,22h0Zm1.7.7v.17h0Zm13.1,0v.17h0Zm2.4-2.4h0Zm0-15.7h0Zm-.7-1.69-.12.12h0Zm-1.7-.7V1.92h0Zm-1,0-.16,0,0,.13h.14Zm-.17-.54.16-.07h0Zm-.6-.8-.11.13ZM13,.27,13,.1h0ZM12,.19V.36h0ZM6.27.19l0,.17h0Zm-1,.08,0-.17h0ZM4.38.75l.11.13Zm6.62,15v-.17h0Zm-.2,0,.06-.16h0Zm.39,0-.06-.16h0Zm.17-.11.12.11h0Zm1.73-1.89v-.17H13l0,.05Zm2.13,0,0-.17h0Zm.3-.09-.1-.13h0Zm.15-.27.17,0v0Zm-.15-.27-.1.13h0Zm-.3-.09v.17h0Zm-2.36,0v.17h0Zm-.37.14L12.38,13h0ZM11,14.74l-.13.12L11,15l.12-.13ZM7.62,11.07,7.75,11h0Zm-.73,0L6.78,11h0ZM5.16,13v.17h.07l0-.06ZM3.05,13v.17h0Zm-.3.09.11.13h0Zm-.15.27-.17,0v.05Zm.15.27-.1.13Zm.3.09v-.17H3Zm2.33,0v-.17h0Zm.2,0,.07.16h0Zm.17-.11.12.12h0Zm1.51-1.64.13-.11-.13-.14-.12.14Zm3.37,3.68-.13.11h0ZM5.43,1.67a1.24,1.24,0,0,1,.85-.4l0-.34a1.64,1.64,0,0,0-1.08.51Zm-.35.87a1.28,1.28,0,0,1,.35-.87l-.25-.23a1.6,1.6,0,0,0-.43,1.1Zm.35.87a1.28,1.28,0,0,1-.35-.87H4.75a1.6,1.6,0,0,0,.43,1.1Zm.85.4a1.24,1.24,0,0,1-.85-.4l-.25.23a1.64,1.64,0,0,0,1.08.51Zm5.71,0H6.27v.34H12Zm.83-.4a1.24,1.24,0,0,1-.85.4l0,.34a1.62,1.62,0,0,0,1.07-.51Zm.35-.87a1.23,1.23,0,0,1-.35.87l.25.23a1.61,1.61,0,0,0,.44-1.1Zm-.35-.87a1.23,1.23,0,0,1,.35.87h.34a1.61,1.61,0,0,0-.44-1.1ZM12,1.27a1.24,1.24,0,0,1,.85.4l.25-.23A1.62,1.62,0,0,0,12,.93Zm-5.7,0H12V.93H6.27Zm0,3.78H12V4.71H6.27ZM5.22,5a2.57,2.57,0,0,0,1.07.08l0-.34a2.09,2.09,0,0,1-.93-.06Zm-1-.52a2.46,2.46,0,0,0,1,.52l.09-.32a2.35,2.35,0,0,1-.82-.45Zm-.65-.86a2.75,2.75,0,0,0,.65.86l.22-.25a2.17,2.17,0,0,1-.56-.75ZM3.44,3a2.7,2.7,0,0,0,.18.57l.31-.14A2.81,2.81,0,0,1,3.77,3Zm-.87.14h1V2.82h-1Zm-.94.39a1.33,1.33,0,0,1,.94-.39V2.82a1.68,1.68,0,0,0-1.18.49Zm-.39.93a1.31,1.31,0,0,1,.39-.93l-.24-.24A1.65,1.65,0,0,0,.91,4.48Zm0,15.7V4.48H.91v15.7Zm.39.94a1.33,1.33,0,0,1-.39-.94H.91a1.67,1.67,0,0,0,.48,1.18Zm.94.39a1.33,1.33,0,0,1-.94-.39l-.24.24a1.67,1.67,0,0,0,1.18.48Zm13.1,0H2.57v.33h13.1Zm.94-.39a1.33,1.33,0,0,1-.94.39v.33a1.67,1.67,0,0,0,1.18-.48Zm.39-.94a1.33,1.33,0,0,1-.39.94l.24.24a1.67,1.67,0,0,0,.48-1.18Zm0-15.7v15.7h.33V4.48Zm-.39-.93a1.31,1.31,0,0,1,.39.93h.33a1.65,1.65,0,0,0-.48-1.17Zm-.94-.39a1.33,1.33,0,0,1,.94.39l.24-.24a1.68,1.68,0,0,0-1.18-.49Zm-1,0h1V2.82h-1Zm0,.43A2.7,2.7,0,0,0,14.81,3L14.48,3a2.81,2.81,0,0,1-.16.49ZM14,4.45a2.48,2.48,0,0,0,.65-.86l-.31-.14a2.17,2.17,0,0,1-.56.75ZM13,5A2.42,2.42,0,0,0,14,4.45l-.22-.25a2.35,2.35,0,0,1-.82.45ZM12,5.05A2.63,2.63,0,0,0,13,5l-.1-.32a2.09,2.09,0,0,1-.93.06ZM3.77,2.12a2.91,2.91,0,0,1,.16-.5l-.31-.14a3.13,3.13,0,0,0-.18.57Zm-1.2.13h1V1.92h-1ZM1,2.91a2.29,2.29,0,0,1,1.58-.66V1.92a2.58,2.58,0,0,0-1.82.75ZM.34,4.48A2.21,2.21,0,0,1,1,2.91L.75,2.67A2.56,2.56,0,0,0,0,4.48Zm0,15.7V4.48H0v15.7ZM1,21.76a2.23,2.23,0,0,1-.65-1.58H0A2.6,2.6,0,0,0,.75,22Zm1.58.65A2.28,2.28,0,0,1,1,21.76L.75,22a2.58,2.58,0,0,0,1.82.75Zm13.1,0H2.57v.34h13.1Zm1.58-.65a2.28,2.28,0,0,1-1.58.65v.34A2.58,2.58,0,0,0,17.49,22Zm.65-1.58a2.28,2.28,0,0,1-.65,1.58l.24.24a2.6,2.6,0,0,0,.75-1.82Zm0-15.7v15.7h.34V4.48Zm-.65-1.57a2.25,2.25,0,0,1,.65,1.57h.34a2.56,2.56,0,0,0-.75-1.81Zm-1.58-.66a2.29,2.29,0,0,1,1.58.66l.24-.24a2.58,2.58,0,0,0-1.82-.75Zm-1,0h1V1.92h-1Zm-.32-.63a2.24,2.24,0,0,1,.16.5l.33-.07a3.13,3.13,0,0,0-.18-.57ZM13.76.88a2.14,2.14,0,0,1,.56.74l.31-.14A2.48,2.48,0,0,0,14,.62ZM12.94.43a2.2,2.2,0,0,1,.82.45L14,.62A2.55,2.55,0,0,0,13,.1ZM12,.36a2.25,2.25,0,0,1,.93.07L13,.1A2.47,2.47,0,0,0,12,0ZM6.27.36H12V0H6.27Zm-1,.07A2.25,2.25,0,0,1,6.24.36l0-.33A2.41,2.41,0,0,0,5.22.1ZM4.49.88A2.2,2.2,0,0,1,5.31.43L5.22.1a2.59,2.59,0,0,0-1,.52Zm-.56.74A2.14,2.14,0,0,1,4.49.88L4.27.62a2.75,2.75,0,0,0-.65.86ZM11,15.55a.31.31,0,0,1-.13,0l-.13.32a.63.63,0,0,0,.27,0Zm.14,0a.31.31,0,0,1-.13,0v.33a.63.63,0,0,0,.27,0Zm.11-.07a.26.26,0,0,1-.11.07l.13.32a.69.69,0,0,0,.22-.16ZM13,13.56l-1.74,1.89.25.23,1.74-1.89Zm2.25-.05H13.09v.34h2.13Zm.2,0a.24.24,0,0,1-.18,0l0,.34a.59.59,0,0,0,.42-.13Zm.09-.16a.26.26,0,0,1-.09.16l.21.26a.56.56,0,0,0,.21-.38Zm-.09-.12a.26.26,0,0,1,.09.16l.33,0a.61.61,0,0,0-.21-.39Zm-.18,0a.24.24,0,0,1,.18,0l.21-.27a.58.58,0,0,0-.42-.12Zm-2.38,0h2.36v-.34H12.86Zm-.25.1a.35.35,0,0,1,.25-.1v-.34a.71.71,0,0,0-.48.19Zm-1.49,1.63,1.5-1.64L12.37,13l-1.5,1.64ZM7.5,11.18l3.37,3.68.25-.23L7.75,11Zm-.24-.09a.35.35,0,0,1,.24.1L7.74,11a.67.67,0,0,0-.48-.2Zm-.25.1a.39.39,0,0,1,.25-.1v-.34a.66.66,0,0,0-.48.2ZM5.28,13.07,7,11.18,6.77,11,5,12.84Zm-2.23.06H5.16v-.34H3.05Zm-.19,0a.23.23,0,0,1,.18,0l0-.34a.58.58,0,0,0-.42.12Zm-.1.16a.27.27,0,0,1,.1-.16l-.21-.27a.6.6,0,0,0-.22.38Zm.1.12a.27.27,0,0,1-.1-.17l-.33.05a.57.57,0,0,0,.22.38Zm.18,0a.23.23,0,0,1-.18,0l-.21.26a.59.59,0,0,0,.42.13Zm2.34,0H3.05v.34H5.38Zm.14,0-.13,0v.34a.86.86,0,0,0,.27,0Zm.11-.08-.11.08.13.31a.66.66,0,0,0,.22-.15Zm1.51-1.63L5.63,13.42l.25.23L7.39,12Zm3.61,3.67L7.39,11.78,7.14,12l3.36,3.67Zm.11.07a.26.26,0,0,1-.11-.07l-.24.23a.69.69,0,0,0,.22.16Z"/></g></g></svg>