<svg width="16" height="16" viewBox="0 0 16 16" fill="none" xmlns="http://www.w3.org/2000/svg">
<path d="M15.3851 3.64453L14.7014 2.96094L13.041 1.30078L12.3573 0.617187C12.201 0.460938 11.9666 0.460938 11.8104 0.617187C11.6541 0.773438 11.6541 1.00781 11.8104 1.16406L12.2206 1.57422L10.0132 3.78125L9.46624 3.23438L8.91928 2.6875C8.763 2.53125 8.52859 2.53125 8.37232 2.6875C8.21604 2.84375 8.21604 3.07812 8.37232 3.23438L8.6458 3.50781L6.98538 5.16797L2.29715 9.85547C2.14088 10.0117 2.14088 10.2461 2.29715 10.4023L3.11759 11.2227L2.29715 12.043C2.21902 12.1211 2.17995 12.2187 2.17995 12.3164C2.17995 12.4141 2.21902 12.5117 2.29715 12.5898L2.57063 12.8633L0.617206 14.8359C0.460931 14.9922 0.460931 15.2266 0.617206 15.3828C0.695343 15.4609 0.793014 15.5 0.890686 15.5C0.988357 15.5 1.08603 15.4609 1.16417 15.3828L3.09806 13.4492L3.37154 13.7227C3.44968 13.8008 3.54735 13.8398 3.64502 13.8398C3.74269 13.8398 3.84036 13.8008 3.9185 13.7227L4.73894 12.9023L5.55938 13.7227C5.63752 13.8008 5.73519 13.8398 5.83286 13.8398C5.93053 13.8398 6.0282 13.8008 6.10634 13.7227L12.2206 7.60937L12.4745 7.35547L12.748 7.62891C12.8261 7.70703 12.9238 7.74609 13.0215 7.74609C13.1192 7.74609 13.2168 7.70703 13.295 7.62891C13.4512 7.47266 13.4512 7.23828 13.295 7.08203L12.748 6.53516L12.201 5.98828L14.4084 3.78125L14.8186 4.19141C14.8968 4.26953 14.9944 4.30859 15.0921 4.30859C15.1898 4.30859 15.2875 4.26953 15.3656 4.19141C15.5414 4.05469 15.5414 3.80078 15.3851 3.64453ZM5.8524 12.9023L5.12963 12.1797C5.11009 12.1602 5.09056 12.1406 5.07102 12.1211C5.05149 12.1016 5.03195 12.082 5.01242 12.0625C4.85615 11.9062 4.62173 11.9062 4.46546 12.0625L3.64502 12.8828L3.09806 12.3359L3.9185 11.5156C4.07477 11.3594 4.07477 11.125 3.9185 10.9687C3.89897 10.9492 3.87943 10.9297 3.8599 10.9102C3.84036 10.8906 3.82083 10.8711 3.80129 10.8516L3.09806 10.1484L4.75848 8.48828L5.87193 9.60156C5.95007 9.67969 6.04774 9.71875 6.14541 9.71875C6.24308 9.71875 6.34075 9.67969 6.41889 9.60156C6.57516 9.44531 6.57516 9.21094 6.41889 9.05469L5.30544 7.94141L6.12588 7.12109L7.23933 8.23438C7.31747 8.3125 7.41514 8.35156 7.51281 8.35156C7.61048 8.35156 7.70815 8.3125 7.78629 8.23438C7.94256 8.07812 7.94256 7.84375 7.78629 7.6875L6.67284 6.57422L7.2198 6.02734L9.97413 8.78125L5.8524 12.9023ZM10.5602 8.21484L7.78629 5.44141L9.17322 4.05469L9.72018 4.60156L11.3806 6.26172L11.9276 6.80859L10.5602 8.21484ZM11.6541 5.44141L10.5406 4.32812L12.748 2.12109L13.295 2.66797L13.8419 3.21484L11.6541 5.44141Z" fill="#143C8D"/>
</svg>
