<svg width="16" height="12" viewBox="0 0 16 12" fill="none" xmlns="http://www.w3.org/2000/svg">
<path d="M12.544 2.61385V1.961C12.5435 1.4672 12.3455 0.993773 11.9936 0.644603C11.6416 0.295433 11.1644 0.099041 10.6667 0.098522H5.77785C5.28013 0.099041 4.80293 0.295433 4.45099 0.644603C4.09904 0.993773 3.90109 1.4672 3.90057 1.961V2.61385H2.87102C2.26848 2.61437 1.69076 2.85207 1.2647 3.27477C0.838637 3.69748 0.599045 4.27064 0.598522 4.86843V9.27957C0.599045 9.87736 0.838637 10.4505 1.2647 10.8732C1.69076 11.2959 2.26848 11.5336 2.87102 11.5342H13.5735C14.1761 11.5336 14.7538 11.2959 15.1798 10.8732C15.6059 10.4505 15.8455 9.87736 15.846 9.27957V4.86843C15.8455 4.27064 15.6059 3.69748 15.1798 3.27477C14.7538 2.85207 14.1761 2.61437 13.5735 2.61385H12.544ZM4.49339 1.961C4.49392 1.62319 4.62941 1.29936 4.87018 1.06049C5.11095 0.821618 5.43735 0.687192 5.77785 0.686674H10.6667C11.0072 0.687192 11.3336 0.821618 11.5744 1.06049C11.8151 1.29936 11.9506 1.62319 11.9512 1.961V2.61385H4.49339V1.961ZM15.2532 4.86843V9.27957C15.2527 9.72137 15.0755 10.1449 14.7607 10.4573C14.4458 10.7697 14.0188 10.9455 13.5735 10.946H2.87102C2.42571 10.9455 1.99878 10.7697 1.68389 10.4573C1.36901 10.1449 1.19187 9.72137 1.19135 9.27957V4.86843C1.19187 4.42663 1.36901 4.00306 1.68389 3.69066C1.99878 3.37826 2.42571 3.20252 2.87102 3.202H13.5735C14.0188 3.20252 14.4458 3.37826 14.7607 3.69066C15.0755 4.00306 15.2527 4.42663 15.2532 4.86843Z" fill="#143C8D"/>
<path fill-rule="evenodd" clip-rule="evenodd" d="M5.77785 -6.10352e-05L10.6667 -6.09764e-05C11.1903 0.00048501 11.6925 0.207073 12.063 0.574619C12.4335 0.942191 12.642 1.44073 12.6426 1.9609V2.51527H13.5735C14.2019 2.51581 14.8047 2.76371 15.2493 3.20479C15.6939 3.6459 15.9441 4.24418 15.9446 4.86835V9.27957C15.9441 9.90373 15.6939 10.5021 15.2493 10.9432C14.8047 11.3843 14.202 11.6322 13.5736 11.6327H2.87102C2.24261 11.6322 1.63986 11.3843 1.19527 10.9432C0.750653 10.5021 0.500485 9.90382 0.499939 9.27965L0.499939 4.86843C0.500485 4.24427 0.750653 3.6459 1.19527 3.20479C1.63986 2.76371 2.24253 2.51581 2.87094 2.51527L3.80198 2.51527V1.961C3.80253 1.44084 4.01106 0.942191 4.38156 0.574619C4.75202 0.207073 5.25427 0.000484899 5.77785 -6.10352e-05ZM5.77795 0.197105C5.30609 0.197597 4.85385 0.383792 4.52042 0.714587C4.18702 1.04536 3.99964 1.49367 3.99915 1.96111V2.71243H2.87111C2.29443 2.71293 1.74167 2.94044 1.33413 3.34476C0.926631 3.74905 0.697616 4.29707 0.697105 4.86848L0.697105 9.27948C0.697605 9.85091 0.926621 10.3989 1.33413 10.8032C1.74167 11.2076 2.29443 11.4351 2.87111 11.4356H13.5734C14.1501 11.4351 14.7029 11.2076 15.1104 10.8032C15.5179 10.3989 15.7469 9.85091 15.7474 9.27948V4.86852C15.7469 4.29709 15.5179 3.74906 15.1104 3.34476C14.7029 2.94044 14.1501 2.71293 13.5734 2.71243H12.4454V1.96111C12.4449 1.49367 12.2575 1.04536 11.9241 0.714587C11.5907 0.383804 11.1385 0.19761 10.6666 0.197105L5.77795 0.197105ZM5.77785 0.58809L10.6667 0.588091C11.033 0.588649 11.3845 0.73327 11.6438 0.990504C11.9031 1.24776 12.0492 1.59669 12.0497 1.96085V2.71243H4.39481V1.961C4.39537 1.59684 4.54144 1.24776 4.80075 0.990504C5.06003 0.73327 5.41151 0.588648 5.77785 0.58809ZM10.6666 0.785257H5.77794C5.46331 0.785752 5.16186 0.90998 4.93961 1.13047C4.71738 1.35095 4.59246 1.64969 4.59198 1.96115V2.51527H11.8526V1.96115C11.8521 1.64969 11.7272 1.35095 11.5049 1.13047C11.2827 0.90998 10.9812 0.785752 10.6666 0.785257ZM2.87102 3.10342H13.5735C14.0447 3.10397 14.4967 3.2899 14.8301 3.62068C15.1635 3.95148 15.3512 4.40015 15.3518 4.86832V9.27957C15.3512 9.74773 15.1635 10.1965 14.8301 10.5273C14.4967 10.8581 14.0448 11.044 13.5736 11.0446H2.87102C2.39985 11.044 1.94787 10.8581 1.61446 10.5273C1.28103 10.1965 1.09332 9.74785 1.09277 9.27969L1.09277 4.86843C1.09332 4.40027 1.28103 3.95148 1.61446 3.62068C1.94787 3.2899 2.39985 3.10397 2.87102 3.10342ZM15.1546 4.86855C15.1541 4.4531 14.9876 4.05465 14.6912 3.76064C14.3949 3.46661 13.9929 3.30107 13.5734 3.30059H2.87114C2.45168 3.30107 2.04969 3.46661 1.75332 3.76064C1.45699 4.05464 1.29043 4.45308 1.28993 4.86851C1.28993 4.86852 1.28993 4.8685 1.28993 4.86851V9.27945C1.29042 9.6949 1.45698 10.0933 1.75332 10.3874C2.04969 10.6814 2.45168 10.8469 2.87114 10.8474H13.5734C13.9929 10.8469 14.3949 10.6814 14.6912 10.3874C14.9876 10.0933 15.1541 9.6949 15.1546 9.27945V4.86855Z" fill="#143C8D"/>
<path d="M10.7219 5.95648H9.36831V4.61549C9.36831 4.5375 9.33708 4.4627 9.28149 4.40755C9.2259 4.3524 9.15051 4.32142 9.07189 4.32142H7.37246C7.29384 4.32142 7.21845 4.3524 7.16286 4.40755C7.10727 4.4627 7.07604 4.5375 7.07604 4.61549V5.95844H5.72242C5.64381 5.95844 5.56842 5.98942 5.51283 6.04457C5.45724 6.09972 5.42601 6.17452 5.42601 6.25251V7.93855C5.42601 8.01654 5.45724 8.09134 5.51283 8.14649C5.56842 8.20164 5.64381 8.23262 5.72242 8.23262H7.07604V9.57557C7.07604 9.65356 7.10727 9.72836 7.16286 9.78351C7.21845 9.83866 7.29384 9.86964 7.37246 9.86964H9.07189C9.15051 9.86964 9.2259 9.83866 9.28149 9.78351C9.33708 9.72836 9.36831 9.65356 9.36831 9.57557V8.23458H10.7219C10.8005 8.23458 10.8759 8.2036 10.9315 8.14845C10.9871 8.0933 11.0183 8.0185 11.0183 7.94051V6.25447C11.0189 6.21553 11.0116 6.17686 10.9969 6.14073C10.9823 6.1046 10.9605 6.07172 10.9329 6.04399C10.9054 6.01627 10.8725 5.99426 10.8363 5.97923C10.8001 5.96421 10.7612 5.95647 10.7219 5.95648ZM10.4255 7.64643H9.07189C8.99328 7.64643 8.91789 7.67741 8.8623 7.73256C8.80671 7.78771 8.77548 7.86251 8.77548 7.94051V9.28345H7.66887V7.93659C7.66887 7.85859 7.63764 7.78379 7.58205 7.72864C7.52646 7.67349 7.45107 7.64251 7.37246 7.64251H6.01884V6.54463H7.37246C7.45107 6.54463 7.52646 6.51365 7.58205 6.4585C7.63764 6.40335 7.66887 6.32855 7.66887 6.25055V4.90173H8.77548V6.24467C8.77548 6.32266 8.80671 6.39746 8.8623 6.45261C8.91789 6.50776 8.99328 6.53875 9.07189 6.53875H10.4255V7.64643Z" fill="#143C8D"/>
<path fill-rule="evenodd" clip-rule="evenodd" d="M7.09343 4.33757C7.16756 4.26401 7.26795 4.22283 7.37246 4.22283H9.07189C9.1764 4.22283 9.27679 4.26401 9.35092 4.33757C9.42508 4.41114 9.46689 4.5111 9.46689 4.61549V5.85789H10.7219C10.7219 5.85789 10.7219 5.85789 10.7219 5.85789C10.7741 5.85789 10.8258 5.86818 10.874 5.88817C10.9223 5.90817 10.966 5.93749 11.0028 5.97447C11.0396 6.01145 11.0687 6.05536 11.0883 6.10366C11.1078 6.15175 11.1175 6.20321 11.1169 6.25508C11.1169 6.25532 11.1169 6.25484 11.1169 6.25508V7.94051C11.1169 8.0449 11.0751 8.14486 11.001 8.21843C10.9268 8.29199 10.8264 8.33317 10.7219 8.33317H9.46689V8.23458H9.36831V8.33317H9.46689V9.57557C9.46689 9.67996 9.42508 9.77992 9.35092 9.85349C9.27679 9.92704 9.1764 9.96823 9.07189 9.96823H7.37246C7.26795 9.96823 7.16756 9.92704 7.09343 9.85349C7.01927 9.77992 6.97746 9.67996 6.97746 9.57557V8.3312H7.07604V8.23262H6.97746V8.3312H5.72242C5.61791 8.3312 5.51753 8.29002 5.44339 8.21647C5.36923 8.1429 5.32743 8.04294 5.32743 7.93855V6.25251C5.32743 6.14812 5.36923 6.04816 5.44339 5.97459C5.51753 5.90104 5.61791 5.85985 5.72242 5.85985H6.97746V5.95844H7.07604V5.85985H6.97746V4.61549C6.97746 4.5111 7.01927 4.41114 7.09343 4.33757ZM10.7219 6.05506H9.26972V4.61549C9.26972 4.5639 9.24907 4.51426 9.21206 4.47753C9.17502 4.44078 9.12461 4.42 9.07189 4.42H7.37246C7.31974 4.42 7.26933 4.44078 7.23229 4.47753C7.19528 4.51426 7.17463 4.5639 7.17463 4.61549V6.05702H5.72242C5.6697 6.05702 5.6193 6.07781 5.58226 6.11455C5.54524 6.15128 5.52459 6.20092 5.52459 6.25251V7.93855C5.52459 7.99014 5.54524 8.03978 5.58226 8.0765C5.6193 8.11325 5.6697 8.13404 5.72242 8.13404H7.17463V9.57557C7.17463 9.62716 7.19528 9.6768 7.23229 9.71353C7.26933 9.75028 7.31974 9.77106 7.37246 9.77106H9.07189C9.12461 9.77106 9.17502 9.75028 9.21206 9.71353C9.24907 9.6768 9.26972 9.62716 9.26972 9.57557V8.136H10.7219C10.7746 8.136 10.8251 8.11522 10.8621 8.07847C10.8991 8.04174 10.9198 7.9921 10.9198 7.94051V6.25315C10.9201 6.22737 10.9153 6.20176 10.9056 6.1778C10.8959 6.15384 10.8814 6.13198 10.863 6.11351C10.8447 6.09505 10.8227 6.08034 10.7985 6.07029C10.7743 6.06024 10.7482 6.05506 10.7219 6.05506ZM7.57029 4.80314H8.87406V6.24467C8.87406 6.29627 8.89472 6.34591 8.93173 6.38263C8.96877 6.41938 9.01918 6.44016 9.07189 6.44016H10.5241V7.74501H9.07189C9.01918 7.74501 8.96877 7.7658 8.93173 7.80255C8.89472 7.83927 8.87406 7.88891 8.87406 7.94051V9.38204H7.57029V7.93659C7.57029 7.88499 7.54964 7.83535 7.51262 7.79863C7.47558 7.76188 7.42518 7.74109 7.37246 7.74109H5.92025V6.44605H7.37246C7.42518 6.44605 7.47558 6.42526 7.51262 6.38851C7.54964 6.35179 7.57029 6.30215 7.57029 6.25055V4.80314ZM7.76745 5.00031V6.25055C7.76745 6.35495 7.72565 6.4549 7.65148 6.52848C7.57735 6.60203 7.47697 6.64321 7.37246 6.64321H6.11742V7.54393H7.37246C7.47697 7.54393 7.57735 7.58511 7.65148 7.65866C7.72565 7.73224 7.76745 7.83219 7.76745 7.93659V9.18487H8.6769V7.94051C8.6769 7.83611 8.7187 7.73616 8.79287 7.66258C8.867 7.58903 8.96739 7.54785 9.07189 7.54785H10.3269V6.63733H9.07189C8.96739 6.63733 8.867 6.59615 8.79287 6.5226C8.7187 6.44902 8.6769 6.34906 8.6769 6.24467V5.00031H7.76745Z" fill="#143C8D"/>
</svg>
